<?xml version="1.0" encoding="UTF-8" standalone="no" ?>
<!DOCTYPE svg PUBLIC "-//W3C//DTD SVG 1.1//EN" "http://www.w3.org/Graphics/SVG/1.1/DTD/svg11.dtd">
<svg xmlns="http://www.w3.org/2000/svg" xmlns:xlink="http://www.w3.org/1999/xlink" version="1.1" width="656" height="447.5061" viewBox="0 0 656 447.5061" xml:space="preserve">
<desc>Created with Fabric.js 4.6.0</desc>
<defs>
</defs>
<g transform="matrix(1 0 0 1 79.59 337.97)" id="48V3uAjZr6sPTCFNAkOX6"  >
<path style="stroke: none; stroke-width: 1; stroke-dasharray: none; stroke-linecap: butt; stroke-dashoffset: 0; stroke-linejoin: miter; stroke-miterlimit: 4; fill: rgb(242,242,242); fill-rule: nonzero; opacity: 1;" vector-effect="non-scaling-stroke"  transform=" translate(-79.59, -337.97)" d="M 108.40148 315.94602 C 105.24055000000001 316.28612 101.79227 316.79657 98.1243 317.54346 C 82.57184000000001 320.71033 82.24904000000001 331.27081999999996 82.38534 333.69192999999996 L 82.27968 333.62606999999997 C 80.71585999999999 336.13466 79.73643 338.67337 79.14449 341.06944 L 78.43228 308.70292 C 78.89280000000001 307.74272 79.31182000000001 306.65396 79.66117000000001 305.53798 C 80.82536000000002 309.12302 82.73373000000001 312.50993 84.37877000000002 312.28546 C 86.51786000000001 311.99356 87.45044000000001 305.6995 87.05142000000002 301.22665 C 89.77158000000003 304.72979 94.34952000000003 308.47637000000003 96.07653000000002 307.32111000000003 C 97.45654000000002 306.39798 96.63826000000002 302.59752000000003 95.13161000000002 299.1424 C 98.27090000000003 301.03372 101.74774000000002 302.27679 102.82664000000003 301.07582 C 104.29891000000002 299.43697000000003 100.77107000000002 293.845 97.51759000000003 290.72347 C 101.87255000000003 291.12960000000004 107.41131000000003 290.43576 107.77443000000002 288.4537 C 108.07363000000002 286.8206 104.77721000000003 284.75986 101.24893000000003 283.43356 C 104.79283000000002 282.49915 108.10682000000003 280.871 107.99691000000003 279.26032 C 107.86634000000002 277.34693999999996 102.94623000000003 276.06489 98.70165000000003 275.86981 C 101.90319000000002 273.3651 104.84486000000003 269.9027 103.94527000000002 268.33678 C 103.11823000000003 266.89716 99.27088000000002 267.4548 95.72121000000003 268.72274 C 97.82185000000003 265.71948 99.29871000000003 262.33531999999997 98.17398000000003 261.17717999999996 C 96.77292000000003 259.73452 91.80039000000002 262.22455999999994 88.40687000000003 264.97695999999996 C 89.06749000000002 260.68899 88.73352000000003 255.27643999999995 86.81028000000002 254.78673999999995 C 85.20133000000001 254.37706999999995 82.92099000000002 257.52559999999994 81.35758000000001 260.95539999999994 C 80.66661000000002 257.35608999999994 79.26779000000002 253.93894999999995 77.65338000000001 253.93894999999995 C 75.35356000000002 253.93894999999995 73.48920000000001 260.87293999999997 73.48920000000001 265.39043999999996 C 73.48920000000001 265.64579999999995 73.49597000000001 265.88617999999997 73.50763 266.11584999999997 C 73.27680000000001 265.84824 73.01225000000001 265.56865999999997 72.71056 265.27567 C 69.4698 262.12838999999997 63.196650000000005 258.63503 61.5944 260.28485 C 60.46966 261.44299 61.94652 264.82715 64.04717 267.83041000000003 C 60.497499999999995 266.56247 56.65015 266.00482000000005 55.82310999999999 267.44445 C 54.711839999999995 269.37884 59.46193999999999 274.20768000000004 63.32301 276.54944 C 63.090909999999994 276.52148 62.84706 276.49794 62.58754 276.48024 C 58.080529999999996 276.17271999999997 51.035709999999995 277.56073 50.87914 279.85521 C 50.76923 281.46588 54.08323 283.09404 57.62712 284.02845 C 54.09883 285.35475 50.80242 287.41549000000003 51.10162 289.04859000000005 C 51.46474 291.03065000000004 57.003499999999995 291.72449000000006 61.358459999999994 291.31836000000004 C 58.10497999999999 294.4399 54.57713999999999 300.03186000000005 56.049409999999995 301.67071000000004 C 57.12830999999999 302.87168 60.60513999999999 301.62861000000004 63.74444 299.73729000000003 C 62.23779 303.19241000000005 61.41952 306.99287000000004 62.799519999999994 307.91600000000005 C 64.62325 309.13596000000007 69.62492999999999 304.88999000000007 72.26201999999999 301.23651000000007 C 71.99332 305.70616000000007 73.06278999999999 311.8465500000001 75.18481999999999 312.08887000000004 C 76.07224 312.19021000000004 77.01258999999999 311.2438 77.86124999999998 309.78657000000004 L 75.45768999999999 344.57669000000004 C 74.89584999999998 348.62828 78.48967999999998 351.27211000000005 78.81086999999998 352.94103000000007 L 79.32928999999999 376.5003300000001 C 78.74420999999998 374.8223900000001 77.95612999999999 373.1051300000001 76.89380999999999 371.40100000000007 L 76.78814999999999 371.46690000000007 C 76.92442999999999 369.0455400000001 76.60139999999998 358.48535000000004 61.04918999999999 355.31854000000004 C 57.38121999999999 354.57165000000003 53.93293999999999 354.06120000000004 50.77200999999999 353.72110000000004 C 47.040849999999985 353.31965 45.58540999999999 358.42721000000006 48.95605999999999 360.07691000000005 C 53.837499999999984 362.46608000000003 58.42935999999999 365.4762600000001 60.82273999999999 369.04094000000003 C 66.94174999999998 378.15453 75.39643999999998 372.88636 76.59852 372.06844 C 77.94117999999999 374.30353 78.82158 376.55531 79.37764999999999 378.69789000000003 L 79.65296 391.20933 C 79.58551999999999 391.50523000000004 79.53881999999999 391.67092 79.53519 391.68336000000005 L 79.66421 391.72118000000006 L 80.33049 422.00002000000006 L 86.51106 421.9503700000001 L 84.30038 391.00090000000006 C 84.67187 389.33133000000004 85.81473 383.6436800000001 84.30038 377.73684000000003 L 82.08970000000001 353.41940000000005 L 82.08970000000001 353.41940000000005 C 82.08420000000001 353.40063000000004 82.21518 354.05782000000005 82.08970000000001 353.41940000000005 L 79.206 343.86436000000003 C 79.62533 340.90832000000006 80.5985 337.58338000000003 82.57494 334.29339000000004 C 83.777 335.1113 92.23170999999999 340.37950000000006 98.35073 331.26589000000007 C 100.74410999999999 327.7012000000001 105.33597 324.69103000000007 110.21741 322.3018600000001 C 113.58806 320.65215000000006 112.13262 315.5446000000001 108.40146 315.94605000000007 Z M 80.16806000000001 387.58452 L 80.05155 382.28932 C 80.28654 384.29146 80.27465000000001 386.09864999999996 80.16806000000001 387.58452 Z" stroke-linecap="round" />
</g>
<g transform="matrix(1 0 0 1 552.59 337.97)" id="HM9cqJhf72D-NoWcMG6t3"  >
<path style="stroke: none; stroke-width: 1; stroke-dasharray: none; stroke-linecap: butt; stroke-dashoffset: 0; stroke-linejoin: miter; stroke-miterlimit: 4; fill: rgb(242,242,242); fill-rule: nonzero; opacity: 1;" vector-effect="non-scaling-stroke"  transform=" translate(-552.59, -337.97)" d="M 581.40148 315.94602 C 578.24055 316.28612 574.79227 316.79657 571.1243 317.54346 C 555.57184 320.71033 555.2490399999999 331.27081999999996 555.3853399999999 333.69192999999996 L 555.27968 333.62606999999997 C 553.71586 336.13466 552.73643 338.67337 552.14449 341.06944 L 551.43228 308.70292 C 551.8928 307.74272 552.31182 306.65396 552.66117 305.53798 C 553.8253599999999 309.12302 555.7337299999999 312.50993 557.3787699999999 312.28546 C 559.5178599999999 311.99356 560.45044 305.6995 560.0514199999999 301.22665 C 562.7715799999999 304.72979 567.3495199999999 308.47637000000003 569.0765299999999 307.32111000000003 C 570.4565399999999 306.39798 569.63826 302.59752000000003 568.1316099999999 299.1424 C 571.2708999999999 301.03372 574.7477399999999 302.27679 575.8266399999999 301.07582 C 577.2989099999999 299.43697000000003 573.7710699999999 293.845 570.5175899999999 290.72347 C 574.8725499999999 291.12960000000004 580.41131 290.43576 580.7744299999999 288.4537 C 581.07363 286.8206 577.77721 284.75986 574.24893 283.43356 C 577.79283 282.49915 581.10682 280.871 580.99691 279.26032 C 580.8663399999999 277.34693999999996 575.94623 276.06489 571.70165 275.86981 C 574.90319 273.3651 577.8448599999999 269.9027 576.9452699999999 268.33678 C 576.1182299999999 266.89716 572.2708799999999 267.4548 568.7212099999999 268.72274 C 570.8218499999999 265.71948 572.2987099999999 262.33531999999997 571.1739799999999 261.17717999999996 C 569.7729199999999 259.73452 564.8003899999999 262.22455999999994 561.4068699999999 264.97695999999996 C 562.0674899999999 260.68899 561.7335199999999 255.27643999999995 559.8102799999999 254.78673999999995 C 558.2013299999999 254.37706999999995 555.92099 257.52559999999994 554.3575799999999 260.95539999999994 C 553.6666099999999 257.35608999999994 552.2677899999999 253.93894999999995 550.6533799999999 253.93894999999995 C 548.3535599999999 253.93894999999995 546.4891999999999 260.87293999999997 546.4891999999999 265.39043999999996 C 546.4891999999999 265.64579999999995 546.4959699999998 265.88617999999997 546.5076299999998 266.11584999999997 C 546.2767999999999 265.84824 546.0122499999999 265.56865999999997 545.7105599999999 265.27567 C 542.4697999999999 262.12838999999997 536.1966499999999 258.63503 534.5943999999998 260.28485 C 533.4696599999999 261.44299 534.9465199999999 264.82715 537.0471699999998 267.83041000000003 C 533.4974999999998 266.56247 529.6501499999998 266.00482000000005 528.8231099999998 267.44445 C 527.7118399999998 269.37884 532.4619399999998 274.20768000000004 536.3230099999998 276.54944 C 536.0909099999999 276.52148 535.8470599999998 276.49794 535.5875399999999 276.48024 C 531.0805299999998 276.17271999999997 524.0357099999999 277.56073 523.8791399999999 279.85521 C 523.7692299999999 281.46588 527.0832299999998 283.09404 530.6271199999999 284.02845 C 527.0988299999999 285.35475 523.8024199999999 287.41549000000003 524.1016199999999 289.04859000000005 C 524.4647399999999 291.03065000000004 530.0034999999999 291.72449000000006 534.3584599999999 291.31836000000004 C 531.10498 294.4399 527.5771399999999 300.03186000000005 529.04941 301.67071000000004 C 530.1283099999999 302.87168 533.60514 301.62861000000004 536.7444399999999 299.73729000000003 C 535.2377899999999 303.19241000000005 534.4195199999999 306.99287000000004 535.7995199999999 307.91600000000005 C 537.6232499999999 309.13596000000007 542.62493 304.88999000000007 545.2620199999999 301.23651000000007 C 544.9933199999999 305.70616000000007 546.06279 311.8465500000001 548.18482 312.08887000000004 C 549.07224 312.19021000000004 550.0125899999999 311.2438 550.8612499999999 309.78657000000004 L 548.45769 344.57669000000004 C 547.89585 348.62828 551.4896799999999 351.27211000000005 551.8108699999999 352.94103000000007 L 552.3292899999999 376.5003300000001 C 551.74421 374.8223900000001 550.9561299999999 373.1051300000001 549.8938099999999 371.40100000000007 L 549.78815 371.46690000000007 C 549.92443 369.0455400000001 549.6014 358.48535000000004 534.04919 355.31854000000004 C 530.38122 354.57165000000003 526.9329399999999 354.06120000000004 523.7720099999999 353.72110000000004 C 520.0408499999999 353.31965 518.5854099999999 358.42721000000006 521.9560599999999 360.07691000000005 C 526.8374999999999 362.46608000000003 531.4293599999999 365.4762600000001 533.8227399999998 369.04094000000003 C 539.9417499999998 378.15453 548.3964399999999 372.88636 549.5985199999999 372.06844 C 550.9411799999999 374.30353 551.8215799999999 376.55531 552.3776499999999 378.69789000000003 L 552.6529599999999 391.20933 C 552.5855199999999 391.50523000000004 552.5388199999999 391.67092 552.53519 391.68336000000005 L 552.6642099999999 391.72118000000006 L 553.3304899999999 422.00002000000006 L 559.5110599999999 421.9503700000001 L 557.3003799999999 391.00090000000006 C 557.6718699999999 389.33133000000004 558.8147299999999 383.6436800000001 557.3003799999999 377.73684000000003 L 555.0896999999999 353.41940000000005 L 555.0896999999999 353.41940000000005 C 555.0841999999999 353.40063000000004 555.2151799999999 354.05782000000005 555.0896999999999 353.41940000000005 L 552.2059999999999 343.86436000000003 C 552.6253299999998 340.90832000000006 553.5985 337.58338000000003 555.5749399999999 334.29339000000004 C 556.7769999999998 335.1113 565.2317099999999 340.37950000000006 571.3507299999999 331.26589000000007 C 573.7441099999999 327.7012000000001 578.3359699999999 324.69103000000007 583.2174099999999 322.3018600000001 C 586.5880599999998 320.65215000000006 585.1326199999999 315.5446000000001 581.4014599999998 315.94605000000007 Z M 553.16806 387.58452 L 553.05155 382.28932 C 553.2865400000001 384.29146 553.2746500000001 386.09864999999996 553.16806 387.58452 Z" stroke-linecap="round" />
</g>
<g transform="matrix(1 0 0 1 472.18 161.76)" id="T1kSnni0R0N1hF3W2f_je"  >
<path style="stroke: none; stroke-width: 1; stroke-dasharray: none; stroke-linecap: butt; stroke-dashoffset: 0; stroke-linejoin: miter; stroke-miterlimit: 4; fill: rgb(255,182,182); fill-rule: nonzero; opacity: 1;" vector-effect="non-scaling-stroke"  transform=" translate(-472.18, -161.76)" d="M 485.44292 216.85712 L 482.54473 147.76398 C 482.54473 147.76398 479.28936 106.74475000000001 476.68487 92.42054 C 474.0805 78.09638000000001 456.50079 82.00294 456.50079 82.00294 L 458.45416 123.02223 L 466.88189 165.00001 L 473.44146 222.16212000000002 C 473.10357 223.81562000000002 472.91216000000003 225.61299000000002 472.91216000000003 227.50001 C 472.91216000000003 235.50813 476.25640000000004 242.00001 480.38189000000006 242.00001 C 484.50738000000007 242.00001 487.8516200000001 235.50813 487.8516200000001 227.50001 C 487.8516200000001 223.28749 486.92059000000006 219.5063 485.4429300000001 216.85713 Z" stroke-linecap="round" />
</g>
<g transform="matrix(1 0 0 1 379.25 149.7)" id="I378shIpXmVwW9Z9uzFld"  >
<path style="stroke: none; stroke-width: 1; stroke-dasharray: none; stroke-linecap: butt; stroke-dashoffset: 0; stroke-linejoin: miter; stroke-miterlimit: 4; fill: rgb(255,182,182); fill-rule: nonzero; opacity: 1;" vector-effect="non-scaling-stroke"  transform=" translate(-379.25, -149.7)" d="M 344.36666 198.95449 C 347.44841 195.28378999999998 351.13930000000005 192.78939 354.45362 191.82926999999998 L 393.43439 147.76400999999998 C 393.43439 147.76400999999998 396.68989 106.74473999999998 399.29429 92.42054999999999 C 401.89869 78.09635999999999 419.47837 82.00295999999999 419.47837 82.00295999999999 L 417.52506999999997 123.02222999999998 L 406.45637999999997 167.29699999999997 L 360.84300999999994 206.02231999999998 C 360.0464599999999 207.47346 359.06996999999996 208.92396999999997 357.90034999999995 210.31709999999998 C 352.35105999999996 216.92665 344.82287999999994 219.74119 341.08557999999994 216.60348 C 337.34842999999995 213.46577 338.81737999999996 205.56403999999998 344.36666999999994 198.95449 Z" stroke-linecap="round" />
</g>
<g transform="matrix(1 0 0 1 443.84 70.22)" id="AHBsXEjfj-GIkcZ9hBhjl"  >
<path style="stroke: none; stroke-width: 1; stroke-dasharray: none; stroke-linecap: butt; stroke-dashoffset: 0; stroke-linejoin: miter; stroke-miterlimit: 4; fill: rgb(255,182,182); fill-rule: nonzero; opacity: 1;" vector-effect="non-scaling-stroke"  transform=" translate(-443.84, -70.22)" d="M 430.13131 76.46862 L 434.65312 59.08516 L 452.2687 58.23783 L 457.53901 82.20035 z" stroke-linecap="round" />
</g>
<g transform="matrix(1 0 0 1 443.84 70.22)" id="yw-1a1_AkTgMFQqLm621q"  >
<path style="stroke: none; stroke-width: 1; stroke-dasharray: none; stroke-linecap: butt; stroke-dashoffset: 0; stroke-linejoin: miter; stroke-miterlimit: 4; fill: rgb(0,0,0); fill-rule: nonzero; opacity: 0.1;" vector-effect="non-scaling-stroke"  transform=" translate(-443.84, -70.22)" d="M 430.13131 76.46862 L 434.65312 59.08516 L 452.2687 58.23783 L 457.53901 82.20035 z" stroke-linecap="round" />
</g>
<g transform="matrix(1 0 0 1 376.9 385.95)" id="tXFIcXy8dK2v2iVebBbKZ"  >
<path style="stroke: none; stroke-width: 1; stroke-dasharray: none; stroke-linecap: butt; stroke-dashoffset: 0; stroke-linejoin: miter; stroke-miterlimit: 4; fill: rgb(255,182,182); fill-rule: nonzero; opacity: 1;" vector-effect="non-scaling-stroke"  transform=" translate(-376.9, -385.95)" d="M 385.1488 361.25683 L 368.64994 360.3143 L 370.81424000000004 410.94912 L 381.99418000000003 411.58853 z" stroke-linecap="round" />
</g>
<g transform="matrix(1 0 0 1 367.33 409.85)" id="kle9Ks9iidWLZ863ofiz-"  >
<path style="stroke: none; stroke-width: 1; stroke-dasharray: none; stroke-linecap: butt; stroke-dashoffset: 0; stroke-linejoin: miter; stroke-miterlimit: 4; fill: rgb(47,46,65); fill-rule: nonzero; opacity: 1;" vector-effect="non-scaling-stroke"  transform=" translate(-367.33, -409.85)" d="M 369.38449 394.93938 L 375.1134 397.5527 L 375.10597 401.02545000000003 C 375.10597 401.02545000000003 376.48810000000003 397.00622000000004 383.90706 396.12930000000006 L 384.79265 399.49635000000006 C 384.79265 399.49635000000006 387.67001 402.79899000000006 387.17649 408.7728000000001 L 385.28799 424.7704300000001 L 379.69297 424.64161000000007 L 378.78928 413.50961000000007 C 378.78928 413.50961000000007 377.24798000000004 410.9835500000001 370.14860000000004 422.98679000000004 C 370.14860000000004 422.98679000000004 362.32808000000006 424.95789 350.21742000000006 420.89721000000003 C 348.55289000000005 420.33910000000003 347.39664000000005 418.78509 347.41841000000005 417.02962 C 347.43043000000006 416.06084000000004 347.80910000000006 415.16552 349.0239 414.84436 C 352.1161 414.02686 355.13566000000003 415.06347 357.13256 412.59538 C 359.12946 410.12728999999996 369.38449 394.93937999999997 369.38449 394.93937999999997 Z" stroke-linecap="round" />
</g>
<g transform="matrix(1 0 0 1 465.45 385.95)" id="wny04aU6kWqxlnf-DqB30"  >
<path style="stroke: none; stroke-width: 1; stroke-dasharray: none; stroke-linecap: butt; stroke-dashoffset: 0; stroke-linejoin: miter; stroke-miterlimit: 4; fill: rgb(255,182,182); fill-rule: nonzero; opacity: 1;" vector-effect="non-scaling-stroke"  transform=" translate(-465.45, -385.95)" d="M 473.69834 361.25683 L 457.19946999999996 360.3143 L 459.36377 410.94912 L 470.54371 411.58853 z" stroke-linecap="round" />
</g>
<g transform="matrix(1 0 0 1 455.88 409.85)" id="FSWX9tS0Ici_wyApL2iq4"  >
<path style="stroke: none; stroke-width: 1; stroke-dasharray: none; stroke-linecap: butt; stroke-dashoffset: 0; stroke-linejoin: miter; stroke-miterlimit: 4; fill: rgb(47,46,65); fill-rule: nonzero; opacity: 1;" vector-effect="non-scaling-stroke"  transform=" translate(-455.88, -409.85)" d="M 457.93402 394.93938 L 463.66292999999996 397.5527 L 463.65549999999996 401.02545000000003 C 463.65549999999996 401.02545000000003 465.03763 397.00622000000004 472.45658999999995 396.12930000000006 L 473.3421799999999 399.49635000000006 C 473.3421799999999 399.49635000000006 476.21953999999994 402.79899000000006 475.72601999999995 408.7728000000001 L 473.8375199999999 424.7704300000001 L 468.24249999999995 424.64161000000007 L 467.33880999999997 413.50961000000007 C 467.33880999999997 413.50961000000007 465.79751 410.9835500000001 458.69813 422.98679000000004 C 458.69813 422.98679000000004 450.87761 424.95789 438.76695 420.89721000000003 C 437.10242 420.33910000000003 435.94617 418.78509 435.96794 417.02962 C 435.97996 416.06084000000004 436.35863 415.16552 437.57343 414.84436 C 440.66562999999996 414.02686 443.68519 415.06347 445.68208999999996 412.59538 C 447.67898999999994 410.12728999999996 457.93402 394.93937999999997 457.93402 394.93937999999997 Z" stroke-linecap="round" />
</g>
<g transform="matrix(1 0 0 1 443.68 49.79)" id="5oeazPi9X8j-ujux3P9vU"  >
<path style="stroke: none; stroke-width: 1; stroke-dasharray: none; stroke-linecap: butt; stroke-dashoffset: 0; stroke-linejoin: miter; stroke-miterlimit: 4; fill: rgb(255,182,182); fill-rule: nonzero; opacity: 1;" vector-effect="non-scaling-stroke"  transform=" translate(-19.53, -19.53)" d="M 0 19.53299 C 0 8.745220000000002 8.74522 0 19.53299 0 C 30.32076 0 39.06598 8.74522 39.06598 19.53299 C 39.06598 30.32076 30.320760000000003 39.06598 19.53299 39.06598 C 8.745220000000002 39.06598 0 30.320760000000003 0 19.53299 z" stroke-linecap="round" />
</g>
<g transform="matrix(1 0 0 1 446.33 29.54)" id="a1Fiqv8s6aO_XhOSqIs2j"  >
<path style="stroke: none; stroke-width: 1; stroke-dasharray: none; stroke-linecap: butt; stroke-dashoffset: 0; stroke-linejoin: miter; stroke-miterlimit: 4; fill: rgb(47,46,65); fill-rule: nonzero; opacity: 1;" vector-effect="non-scaling-stroke"  transform=" translate(-446.33, -29.54)" d="M 454.75196 53.03639 C 454.75196 53.03639 446.16399 38.98446 437.56736 40.535439999999994 C 428.97074000000003 42.08642 424.48927000000003 43.48671999999999 424.48927000000003 43.48671999999999 C 424.48927000000003 43.48671999999999 420.98852000000005 32.28304999999999 432.74166 26.90787999999999 C 432.74166 26.90787999999999 416.10893000000004 12.98198999999999 433.83572000000004 4.044809999999991 C 451.56251000000003 -4.8923700000000085 462.59342000000004 3.7691999999999912 462.59342000000004 3.7691999999999912 C 462.59342000000004 3.7691999999999912 477.26536000000004 16.212089999999993 460.99829000000005 27.72751999999999 C 460.99829000000005 27.72751999999999 475.07763000000006 43.76536999999999 460.8572300000001 59.08515999999999 C 460.8572300000001 59.08515999999999 463.3676300000001 47.41999999999999 459.95263000000006 49.811419999999984 C 456.53762000000006 52.20283999999998 454.75196000000005 53.03638999999998 454.75196000000005 53.03638999999998 Z" stroke-linecap="round" />
</g>
<g transform="matrix(1 0 0 1 439.84 120.09)" id="HYRrong4bF08Ik7tyKcub"  >
<path style="stroke: none; stroke-width: 1; stroke-dasharray: none; stroke-linecap: butt; stroke-dashoffset: 0; stroke-linejoin: miter; stroke-miterlimit: 4; fill: rgb(191,117,165); fill-rule: nonzero; opacity: 1;" vector-effect="non-scaling-stroke"  transform=" translate(0, 0)" d="M 16.98593 -42.32147 L -9.709150000000001 -45.576969999999996 L -30.218780000000002 -28.973929999999996 C -30.218780000000002 -28.973929999999996 -40.41904 -0.5532299999999957 -32.82318 16.603040000000007 C -32.64117 17.01414000000001 -32.49763 45.57697 -32.49763 45.57697 L 24.2198 45.57697 C 24.2198 45.57697 24.164849999999998 26.135550000000002 26.33204 19.094260000000002 C 26.64164 18.08836 26.996589999999998 17.335530000000002 27.40353 16.928590000000003 C 30.65903 13.673090000000004 38.47222 -7.162089999999996 34.56562 -16.277479999999994 C 30.65902 -25.392869999999995 16.985930000000003 -42.321459999999995 16.985930000000003 -42.321459999999995 z" stroke-linecap="round" />
</g>
<g transform="matrix(1 0 0 1 419.98 269.52)" id="lGSfFCQnYN8dtMCJYca5F"  >
<path style="stroke: none; stroke-width: 1; stroke-dasharray: none; stroke-linecap: butt; stroke-dashoffset: 0; stroke-linejoin: miter; stroke-miterlimit: 4; fill: rgb(47,46,65); fill-rule: nonzero; opacity: 1;" vector-effect="non-scaling-stroke"  transform=" translate(-419.98, -269.52)" d="M 407.01728 164.36705 L 371.20681 278.30947000000003 L 363.39361 368.1612 L 385.20545000000004 368.1612 L 403.76178000000004 284.82046 L 429.31616 236.57758 L 454.54754 374.67219 L 476.56445 374.67219 L 476.03383 187.80663 L 464.01412000000005 164.36705 z" stroke-linecap="round" />
</g>
<g transform="matrix(1 0 0 1 328 423.15)" id="XI0rhRdQ_fjSF-JFmqtHv"  >
<path style="stroke: none; stroke-width: 1; stroke-dasharray: none; stroke-linecap: butt; stroke-dashoffset: 0; stroke-linejoin: miter; stroke-miterlimit: 4; fill: rgb(63,61,86); fill-rule: nonzero; opacity: 1;" vector-effect="non-scaling-stroke"  transform=" translate(-328, -1)" d="M 0 2 L 0 0 L 656 0 L 656 2 z" stroke-linecap="round" />
</g>
<g transform="matrix(1 0 0 1 273.19 312.25)" id="YPHYxa38oOtxOie4jTrKX"  >
<path style="stroke: none; stroke-width: 1; stroke-dasharray: none; stroke-linecap: butt; stroke-dashoffset: 0; stroke-linejoin: miter; stroke-miterlimit: 4; fill: rgb(63,61,86); fill-rule: nonzero; opacity: 1;" vector-effect="non-scaling-stroke"  transform=" translate(-273.19, -312.25)" d="M 336.26362 187.42757 C 329.76133 176.9572 314.59139 174.49376 303.32370000000003 179.48851 C 292.05601 184.48326 284.2672 195.1328 278.97265000000004 206.26277 C 273.67810000000003 217.39273 270.34763000000004 229.38428 264.90584000000007 240.44299999999998 C 248.89427000000006 272.98145 216.46981000000005 294.23265 196.07328000000007 324.21769 C 180.74824000000007 346.7471 172.63283000000007 374.10206 173.19220000000007 401.3439 C 173.40646000000007 411.77846 175.09380000000007 422.75599 181.60563000000008 430.91209000000003 C 191.27098000000007 443.01799000000005 208.38337000000007 445.50133000000005 223.79216000000008 447.09544000000005 C 232.74273000000008 448.02141000000006 243.72863000000007 447.99500000000006 248.33817000000008 440.26698000000005 C 250.1615400000001 437.21005 230.5675300000001 426.54552000000007 230.8819000000001 423.00001000000003 C 232.5782800000001 403.86742000000004 254.22563000000008 391.7173 255.92201000000009 372.58470000000005 C 258.5817100000001 385.91602000000006 255.1731100000001 399.67890000000006 255.71111000000008 413.26229000000006 C 256.24910000000006 426.8456800000001 262.9445600000001 442.2100700000001 276.24529000000007 445.0187000000001 C 280.3497300000001 445.8854100000001 284.9839100000001 445.2858700000001 288.0947500000001 442.4715700000001 C 291.2055900000001 439.65728000000007 292.1141600000001 434.3408600000001 289.34287000000006 431.1916500000001 C 292.18054000000006 434.0898600000001 296.96925000000005 434.8430500000001 300.55959000000007 432.9558700000001 C 304.1499300000001 431.0686900000001 306.2449700000001 426.6972100000001 305.46686000000005 422.7164400000001 C 304.89466000000004 419.7891100000001 303.00548000000003 417.3269200000001 301.36956000000004 414.83285000000006 C 292.50789000000003 401.32266000000004 290.19929 383.71767000000006 295.27798 368.37943000000007 C 304.25575000000003 341.2655200000001 333.73771 323.5677600000001 338.73202000000003 295.44622000000004 C 342.44099000000006 274.56206000000003 331.85942000000006 250.89786000000004 343.08826000000005 232.90293000000003 C 348.14858000000004 224.79344000000003 356.74097000000006 219.68130000000002 363.59412000000003 213.01760000000002 C 370.44727000000006 206.3539 375.8065 196.15871 371.88455000000005 187.44154000000003 L 336.85542000000004 187.40335000000005" stroke-linecap="round" />
</g>
<g transform="matrix(1 0 0 1 209.94 392.63)" id="v4AFX6_IVbBuJ1_aVvn5x"  >
<path style="stroke: none; stroke-width: 1; stroke-dasharray: none; stroke-linecap: butt; stroke-dashoffset: 0; stroke-linejoin: miter; stroke-miterlimit: 4; fill: rgb(47,46,65); fill-rule: nonzero; opacity: 1;" vector-effect="non-scaling-stroke"  transform=" translate(-209.94, -392.63)" d="M 228.23833 426.7864 C 227.3665 426.7864 226.47319 426.55349 225.60990999999999 426.0906 C 223.62138 425.02419 222.12186999999997 422.9158 221.78934999999998 420.71853 C 221.23612999999997 417.06423 222.97684999999998 413.51541 224.37553 410.66384 C 228.20146 402.86501 231.98344 394.52566 232.54081 385.86111 C 233.1497 376.40066 229.31229 367.63162 222.76518 363.52029 C 217.89945999999998 360.4656 211.40263 359.67996 204.47269999999997 361.30984 C 198.33475999999996 362.7532 192.82059999999998 365.70388 186.76224999999997 369.12673 C 186.28104999999996 369.3987 185.67142999999996 369.22927 185.39969999999997 368.74782 C 185.12796999999998 368.26734999999996 185.29764999999998 367.657 185.77835999999996 367.38552 C 191.74466999999996 364.01443 197.62869999999995 360.86451999999997 204.01468999999997 359.36257 C 211.46951999999996 357.61062 218.50614999999996 358.48464 223.82864999999998 361.82693 C 230.98880999999997 366.32302 235.19192999999999 375.80740000000003 234.53688999999997 385.98953 C 233.95584999999997 395.0198 230.08547999999996 403.5657 226.17092999999997 411.54471 C 224.82863999999998 414.28153000000003 223.30715999999998 417.38358 223.76687999999996 420.41922 C 224.00466999999995 421.99051 225.12502999999995 423.56131 226.55520999999996 424.32791 C 227.25173999999996 424.70192999999995 228.31399999999996 425.03835999999995 229.41726999999997 424.52518 C 229.91872999999998 424.2908 230.51296999999997 424.50858 230.74612999999997 425.00906999999995 C 230.97928999999996 425.5095599999999 230.76272999999998 426.10477 230.26199999999997 426.33768 C 229.61917999999997 426.63748 228.93582999999998 426.78641 228.23831999999996 426.78641 Z" stroke-linecap="round" />
</g>
<g transform="matrix(1 0 0 1 301.23 217.06)" id="4YPJ4-t8yR4YmmNsGSfE2"  >
<path style="stroke: none; stroke-width: 1; stroke-dasharray: none; stroke-linecap: butt; stroke-dashoffset: 0; stroke-linejoin: miter; stroke-miterlimit: 4; fill: rgb(47,46,65); fill-rule: nonzero; opacity: 1;" vector-effect="non-scaling-stroke"  transform=" translate(-301.23, -217.06)" d="M 304.87324 186.74131 C 303.5638 190.32763 305.31069 194.34705 307.73193000000003 197.29899 C 310.15317000000005 200.25093 313.26293000000004 202.62479 315.39644000000004 205.79093 C 319.86851 212.42747 319.19776 221.50039 315.76150000000007 228.72778 C 312.3252500000001 235.95517 306.53237000000007 241.74577 300.85098000000005 247.3818 C 301.27093 244.96506 300.04884000000004 242.52548 298.38353000000006 240.72444 C 296.7182200000001 238.9234 294.62183000000005 237.58651999999998 292.7595100000001 235.99003 C 284.08717000000007 228.55561999999998 281.3743100000001 215.00781999999998 286.5153900000001 204.80737" stroke-linecap="round" />
</g>
<g transform="matrix(1 0 0 1 146.46 388.48)" id="JsqoNS0PbLE8kCqu01VUU"  >
<path style="stroke: none; stroke-width: 1; stroke-dasharray: none; stroke-linecap: butt; stroke-dashoffset: 0; stroke-linejoin: miter; stroke-miterlimit: 4; fill: rgb(63,61,86); fill-rule: nonzero; opacity: 1;" vector-effect="non-scaling-stroke"  transform=" translate(-146.46, -388.48)" d="M 186.42241 400.10863 C 179.07647 399.20853 172.87122000000002 405.81849 165.54008000000002 406.83204 C 157.06253 408.00408 149.26627000000002 401.29613 145.49441000000002 393.61397 C 141.72255 385.93181 140.75458 377.21189 138.15970000000002 369.05658 C 135.56482000000003 360.90127 130.55854000000002 352.64135 122.40231000000001 350.04936 C 118.98044000000002 348.96191 115.10878000000001 349.02097999999995 111.92989000000001 350.69023 C 108.75100000000002 352.35949 106.42118000000002 355.76734999999996 106.50069000000002 359.35697999999996 C 106.59853000000003 363.77403999999996 109.98579000000002 367.30942 112.03787000000003 371.22207999999995 C 115.30308000000002 377.44777999999997 115.20165000000003 384.82102 116.64394000000003 391.7014899999999 C 120.11159000000004 408.24409999999995 133.56791000000004 422.2723299999999 149.95195000000004 426.4251499999999 C 158.42462000000003 428.5726899999999 167.90944000000005 428.0810499999999 175.24887000000004 423.3343699999999 C 182.58830000000003 418.58768999999995 187.06178000000003 409.0276599999999 184.34490000000005 400.72002999999995" stroke-linecap="round" />
</g>
</svg>