<?xml version="1.0" encoding="UTF-8" standalone="no"?>
<!-- Created with Inkscape (http://www.inkscape.org/) -->

<svg
   version="1.1"
   id="svg2"
   xml:space="preserve"
   width="1440"
   height="1440"
   viewBox="0 0 1440 1440"
   sodipodi:docname="LOGO_SKYDOG (1).ai"
   xmlns:inkscape="http://www.inkscape.org/namespaces/inkscape"
   xmlns:sodipodi="http://sodipodi.sourceforge.net/DTD/sodipodi-0.dtd"
   xmlns="http://www.w3.org/2000/svg"
   xmlns:svg="http://www.w3.org/2000/svg"><defs
     id="defs6"><clipPath
       clipPathUnits="userSpaceOnUse"
       id="clipPath16"><path
         d="M 0,1080 H 1080 V 0 H 0 Z"
         id="path14" /></clipPath></defs><sodipodi:namedview
     id="namedview4"
     pagecolor="#ffffff"
     bordercolor="#666666"
     borderopacity="1.0"
     inkscape:pageshadow="2"
     inkscape:pageopacity="0.0"
     inkscape:pagecheckerboard="0" /><g
     id="g8"
     inkscape:groupmode="layer"
     inkscape:label="LOGO_SKYDOG (1)"
     transform="matrix(1.3333333,0,0,-1.3333333,0,1440)"><g
       id="g10"><g
         id="g12"
         clip-path="url(#clipPath16)"><g
           id="g18"
           transform="translate(968.4356,634.6765)"><path
             d="m 0,0 c 0,226.703 -191.817,410.481 -428.436,410.481 -236.618,0 -428.435,-183.778 -428.435,-410.481 0,-226.703 191.817,-410.481 428.435,-410.481 C -191.817,-410.481 0,-226.703 0,0"
             style="fill:#960b5a;fill-opacity:1;fill-rule:nonzero;stroke:none"
             id="path20" /></g><g
           id="g22"
           transform="translate(539.9998,274.8669)"><path
             d="m 0,0 c -101.312,0 -196.452,37.696 -267.895,106.144 -70.85,67.882 -109.869,157.968 -109.869,253.666 0,95.697 39.019,185.784 109.869,253.665 71.443,68.449 166.583,106.145 267.895,106.145 101.312,0 196.453,-37.696 267.895,-106.145 70.85,-67.881 109.869,-157.968 109.869,-253.665 0,-95.698 -39.019,-185.784 -109.869,-253.666 C 196.453,37.696 101.312,0 0,0"
             style="fill:#ffffff;fill-opacity:1;fill-rule:nonzero;stroke:none"
             id="path24" /></g><g
           id="g26"
           transform="translate(298.956,694.8318)"><path
             d="m 0,0 c 12.777,-10.466 20.343,-29.161 15.081,-45.305 -2.669,-6.163 1.749,-13.073 7.963,-14.535 -4.69,2.138 -8.309,7.958 -5.979,12.894 5.197,10.972 3.66,24.192 -2.047,34.658 C 11.8,-6.43 7.6,-0.981 2.066,2.867 0.175,4.126 -1.838,5.262 -4.07,5.938 -4.998,6.258 -5.944,6.55 -6.813,7.02 -13.264,10.517 -16.952,17.332 -19.751,23.968 -18.125,15.563 -13.715,6.176 -5.126,2.977 -3.313,2.234 -1.566,1.166 0,0"
             style="fill:#000000;fill-opacity:1;fill-rule:nonzero;stroke:none"
             id="path28" /></g><g
           id="g30"
           transform="translate(256.3349,556.5206)"><path
             d="m 0,0 c 0.015,-0.697 0.124,-1.5 0.34,-2.185 1.293,-3.632 5.087,-5.363 7.666,-7.842 1.847,-1.49 1.13,-3.201 -0.386,-4.658 -2.431,-2.279 -6.037,-5.016 -9.471,-3.699 -0.057,0.906 -0.456,1.887 -1.334,2.973 -2.034,2.21 -4.688,3.408 -6.375,5.867 -1.678,2.195 -2.271,5.074 -2.615,7.789 -0.918,6.699 -1.555,13.5 -1.711,20.254 -0.036,5.731 -0.069,11.651 1.79,17.106 0.54,1.384 1.273,2.834 2.524,3.69 0.666,-1.741 1.347,-3.48 2.078,-5.2 2.28,-5.676 5.116,-10.95 8.562,-15.661 C 0.383,14.419 0.074,10.394 -0.081,6.361 -0.126,4.245 -0.106,2.138 0,0 m -6.836,-22.29 c 0,0 -1.171,-0.852 -1.171,-0.852 -6.188,-4.66 -13.524,-2.314 -16.708,4.508 -1.524,3.495 -0.363,7.516 -1.16,11.311 -0.297,1.951 -1.233,3.715 -1.598,5.643 -1.699,9.477 -1.274,19.241 -1.222,28.892 0.118,6.82 0.554,16.66 0.157,23.365 -0.346,6.527 -1.012,13.027 -1.947,19.484 1.905,-3.178 4.229,-6.094 7.057,-8.586 1.924,-1.877 4.476,-3.05 6.132,-5.158 1.586,-2.007 2.739,-4.458 3.805,-6.931 1.32,-3.134 2.499,-6.365 3.727,-9.591 -0.79,-0.492 -1.427,-1.235 -1.937,-1.998 -4.978,-8.694 -2.992,-29.593 -1.937,-39.744 0.982,-12.351 9.145,-11.591 10.016,-16.704 -0.097,-1.525 -2.019,-2.687 -3.214,-3.639 M 25.927,-0.497 C 10.079,5.981 -0.274,18.892 -6.075,34.67 c -1.992,5.074 -3.569,10.3 -5.578,15.471 -1.298,3.19 -2.809,6.66 -5.429,9.167 -1.621,1.393 -3.273,2.424 -4.78,3.888 -3.896,3.598 -6.841,8.135 -8.834,13.06 -3.014,7.428 -4.093,15.598 -4.251,23.612 -0.754,13.299 3.677,26.826 13.179,36.269 4.639,4.728 10.246,8.465 16.575,10.228 6.898,2.363 12.45,7.526 16.747,13.224 5.06,6.693 8.888,14.233 12.306,21.818 4.512,9.986 7.68,20.459 12.809,30.125 9.562,19.043 25.222,35.928 45.998,42.171 20.857,6.555 38.535,-9.945 42.575,-29.651 2.124,-11.358 -1.044,-24.552 -7.984,-33.811 -4.265,-5.512 -10.187,-8.119 -15.661,-2.592 -10.107,9.446 5.575,22.435 -2.979,38.724 -5.642,11.52 -15.524,10.272 -24.563,3.532 -2.256,-1.556 -4.214,-3.535 -6.352,-5.216 2.193,1.597 4.223,3.5 6.527,4.967 4.376,2.88 9.784,5.617 15.093,4.257 7.465,-2.151 11.056,-12.574 10.407,-19.699 -0.34,-6.902 -4.203,-13.287 -3.647,-20.342 0.555,-5.691 6.091,-11.5 11.924,-11.714 10.107,0.123 16.428,13.165 18.908,21.491 1.964,6.738 2.785,14.027 1.472,21.033 -4.146,21.915 -23.861,39.629 -46.796,32.687 -21.897,-6.395 -38.481,-24.155 -48.512,-43.984 -5.163,-9.738 -8.354,-20.374 -12.832,-30.372 -4.375,-9.674 -9.36,-19.588 -17.002,-26.988 -3.29,-3.181 -7.215,-5.533 -11.597,-6.776 -6.141,-2.15 -11.526,-6.069 -15.958,-10.637 -12.883,-13.396 -15.284,-29.328 -13.033,-47.151 0.793,-6.636 2.573,-13.39 5.717,-19.366 0.031,-0.234 0.17,-1.296 0.17,-1.296 l 0.346,-2.887 c 1.076,-9.624 1.703,-19.293 1.173,-28.975 -0.478,-11.362 -1.131,-23.779 -0.285,-35.123 0.184,-1.966 0.374,-3.932 0.815,-5.914 0.168,-0.963 0.538,-2.002 0.847,-2.943 1.967,-4.589 -0.017,-9.688 1.986,-14.383 4.308,-8.8 13.376,-10.641 20.853,-4.358 1.968,1.404 3.625,2.912 3.856,4.742 3.356,-2.331 8.391,0.329 10.756,3.254 1.304,1.526 1.997,4.243 0.168,5.724 C 6.275,-7.707 3.001,-5.353 2.027,-1.706 1.714,0.831 2.15,3.702 2.078,6.328 2.052,10.159 1.932,13.996 1.502,17.842 7.635,9.666 15.663,3.251 25.927,-0.497"
             style="fill:#000000;fill-opacity:1;fill-rule:nonzero;stroke:none"
             id="path32" /></g><g
           id="g34"
           transform="translate(408.2002,553.3226)"><path
             d="m 0,0 c -4.094,-1.15 -3.737,-4.086 -8.726,-1.97 -4.308,2.082 -8.831,3.48 -13.383,4.805 -12.105,3.466 -24.354,6.347 -36.676,8.913 l -0.062,-0.262 c 0,0 12.123,-3.314 12.123,-3.314 7.088,-2.039 17.188,-4.756 24.095,-7.039 4.446,-1.44 8.925,-2.975 13.086,-5.054 2.141,-0.931 4.874,-1.564 7.003,-0.003 1.382,1 2.626,1.942 4.354,1.812 2.36,-0.153 5.353,-0.769 6.948,-2.529 1.145,-1.574 -0.127,-3.6 -1.141,-5.036 -1.369,-1.629 -2.692,-3.643 -4.449,-4.782 -1.176,-0.645 -2.39,-0.527 -3.8,-0.306 -0.867,0.142 -1.845,0.373 -2.613,0.785 -1.416,0.69 -1.789,1.986 -2.923,3.221 -0.16,0.129 -0.309,0.317 -0.512,0.398 -1.729,1.013 -3.506,-0.423 -5.046,-0.981 -2.811,-1.216 -5.759,-2.011 -8.802,-2.447 -8.206,-1.222 -16.591,-0.2 -24.753,1.181 -10.341,1.702 -20.47,4.34 -30.635,6.868 -1.034,0.221 -2.061,0.452 -3.163,0.534 -0.632,0.02 -1.226,0.094 -1.837,-0.32 -1.609,-1.593 1.218,-6.156 2.21,-7.805 3.403,-5.392 7.987,-9.962 13.154,-13.678 6.956,-4.8 14.678,-8.376 22.439,-11.664 3.905,-1.598 7.858,-3.08 11.963,-4.248 2.307,-0.6 4.538,-1.271 7.02,-1.116 0.137,0.01 0.409,0.051 0.542,0.092 0.301,0.013 1.031,0.434 1.087,0.487 2.509,1.597 6.383,2.915 8.986,1.254 2.235,-1.639 5.585,-6.446 4.905,-9.243 -0.478,-1.516 -2.076,-2.225 -3.608,-2.35 -3.464,-0.328 -6.372,1.973 -9.219,3.797 -1.592,0.906 -3.737,0.977 -5.395,0.801 -3.188,-0.337 -6.258,-1.063 -9.385,-1.491 -16.434,-2.549 -33.21,-0.052 -48.667,6.003 -11.142,4.343 -31.38,12.402 -30.572,26.767 0.133,2.051 0.697,4.078 1.544,5.98 l -0.243,0.115 c -0.955,-1.875 -1.663,-3.912 -1.895,-6.04 -1.089,-11.408 10.099,-18.722 18.891,-23.517 14.994,-7.705 31.6,-13.141 48.632,-13.051 6.355,-0.023 12.743,0.745 18.96,1.936 1.847,0.299 3.933,0.721 5.682,0.362 1.769,-0.403 3.3,-2.116 5.081,-2.937 2.041,-1.057 4.357,-1.727 6.831,-1.524 4.457,0.382 7.29,3.969 5.803,8.292 -0.693,2.23 -1.941,4.112 -3.384,5.871 -1.457,1.944 -3.676,3.483 -6.144,3.542 -3.047,0.157 -5.904,-1.015 -8.383,-2.624 l -0.005,0.004 c -0.006,0 0.008,-0.005 -0.01,-0.012 l -0.092,-0.019 -0.092,-0.027 c 0,0 -0.138,-0.013 -0.138,-0.013 -1.962,-0.116 -4.144,0.48 -6.111,0.957 -3.977,1.05 -7.912,2.436 -11.789,3.937 -7.677,3.114 -15.423,6.363 -22.391,10.891 -5.108,3.482 -9.717,7.84 -13.149,13.008 -1.136,1.88 -2.482,3.94 -2.604,6.156 0.02,0.187 0.071,0.365 0.117,0.369 0.08,0.055 0.269,0.129 0.498,0.138 3.322,-0.058 6.588,-1.236 9.84,-1.939 8.128,-2.058 16.29,-4.025 24.524,-5.632 11.787,-2.379 24.689,-4.098 36.058,0.953 0.458,0.194 0.979,0.414 1.251,0.468 0.215,0.058 0.295,0.024 0.419,-0.106 0.848,-1.189 1.841,-2.909 3.37,-3.651 1.075,-0.604 2.299,-0.921 3.351,-1.088 1.649,-0.313 3.786,-0.383 5.389,0.569 1.515,0.885 2.636,2.299 3.693,3.549 1.609,1.918 4.025,4.823 3.454,7.897 C 10.736,-0.929 3.548,0.715 0,0"
             style="fill:#000000;fill-opacity:1;fill-rule:nonzero;stroke:none"
             id="path36" /></g><g
           id="g38"
           transform="translate(360.2994,630.4873)"><path
             d="m 0,0 c 1.78,-1.322 4.293,-0.38 6.105,0.055 4.96,1.384 9.721,-0.949 13.972,-3.424 0,0 0.171,0.208 0.171,0.208 C 16.706,0.98 11.126,4.12 5.515,2.84 4.278,2.632 3.179,2.195 2.084,2.193 1.814,2.225 1.745,2.215 1.486,2.376 c -2.445,1.566 -3.214,5.411 -3.956,8.236 -0.766,3.332 -1.091,6.859 -0.729,10.289 l 0.426,4.032 c 0,0 -1.322,-3.873 -1.322,-3.873 -2.208,-6.134 -12.6,-11.28 -18.192,-14.261 l 0.073,-0.259 c 2.067,0.222 4.064,0.776 6.01,1.484 3.908,1.486 7.746,3.587 10.292,7.027 0.697,0.932 1.269,1.948 1.738,3.004 -0.027,-1.22 -0.052,-2.361 -0.052,-2.361 C -4.272,10.391 -4.744,3.62 0,0"
             style="fill:#000000;fill-opacity:1;fill-rule:nonzero;stroke:none"
             id="path40" /></g><g
           id="g42"
           transform="translate(384.7396,573.8559)"><path
             d="m 0,0 c -2.555,-2.033 -5.715,-3.373 -9.013,-4.326 0,0 0.046,-0.265 0.046,-0.265 1.241,0.075 2.652,0.34 3.878,0.574 8.226,1.788 13.159,8.065 14.24,16.24 0.268,1.776 0.34,3.557 0.36,5.317 0.084,4.328 -0.841,8.482 -0.325,12.61 0.846,4.034 3.951,7.144 7.005,9.786 2.634,2.302 5.608,3.987 8.076,6.555 2.298,2.985 2.105,6.957 1.758,10.464 -0.264,2.41 -1.007,4.877 -1.781,7.206 0,0 -1.434,-1.626 -1.434,-1.626 C 18.076,57.106 10.695,54.996 3.867,53.501 l 0.015,-0.269 c 1.871,-0.095 3.733,0.066 5.591,0.318 4.936,0.739 9.975,2.46 13.697,5.889 0.953,-3.307 1.811,-6.792 1.243,-10.181 C 23.978,46.71 21.667,45.238 19.755,43.76 16.968,41.698 14.011,39.881 11.441,37.496 6.314,32.84 6.335,29.103 6.623,22.644 6.706,17.683 6.813,12.604 5.293,7.859 4.334,4.792 2.54,2.049 0,0"
             style="fill:#000000;fill-opacity:1;fill-rule:nonzero;stroke:none"
             id="path44" /></g><g
           id="g46"
           transform="translate(619.8516,626.5238)"><path
             d="m 0,0 c 0.004,0.002 0.01,0.004 0.014,0.006 -0.01,-0.007 -0.023,-0.021 -0.028,-0.02 -0.016,-0.01 -0.025,-0.015 -0.014,0 C -0.018,-0.006 -0.034,-0.019 0,0 M -3.2,-0.878 C 3.073,-7.047 4.647,3.632 4.254,8.117 4.299,8.443 3.618,12.871 3.178,11.944 3.191,9.382 2.731,6.907 2.08,4.53 1.624,3.046 1.114,1.284 0.161,0.169 c -0.4,0.248 -0.996,0.692 -1.417,1.096 -2.17,1.927 -4.504,4.618 -6.471,6.799 0,0 -2.589,2.83 -2.589,2.83 -1.593,1.862 -3.526,3.808 -4.104,6.222 -0.674,3.13 2.345,5.29 4.469,7.053 3.292,2.768 7.579,3.281 11.794,2.14 0.141,-0.048 0.25,0.136 0.131,0.236 -1.052,0.831 -2.291,1.392 -3.607,1.739 -4.029,1.209 -8.739,-0.534 -11.307,-3.678 -1.326,-1.539 -2.494,-3.512 -2.596,-5.627 -0.029,-3.463 2.489,-6.096 4.034,-8.964 2.357,-3.919 5.015,-7.678 8.302,-10.893"
             style="fill:#000000;fill-opacity:1;fill-rule:nonzero;stroke:none"
             id="path48" /></g><g
           id="g50"
           transform="translate(581.4948,585.0297)"><path
             d="M 0,0 C 0,0.035 0.002,0.065 -0.012,0.1 -0.005,0.092 0.001,0.045 0,0 m 9.317,11.846 c 2.393,3.229 4.659,6.559 7.263,9.627 0.865,1.037 1.754,2.025 2.577,3.216 0.84,1.307 1.14,2.804 1.263,4.215 0.174,5.507 -1.768,10.884 -4.419,15.629 -0.067,0.13 -0.284,0.046 -0.253,-0.092 0.428,-2.672 0.978,-5.267 1.435,-7.856 0.459,-2.583 0.833,-5.159 0.988,-7.65 0.068,-1.24 0.069,-2.475 -0.33,-3.554 C 15.689,20.528 11.387,16.96 7.686,13.267 4.874,10.361 2.099,7.512 -0.402,4.286 -1.157,3.242 -1.951,2.225 -2.443,0.982 c -1.061,-2.997 3.834,-6.217 6.017,-7.349 1.231,-0.615 2.583,-1.166 4.01,-1.121 0.146,-0.006 0.18,0.23 0.038,0.264 -1.243,0.406 -2.293,1.199 -3.299,2.014 -1.669,1.483 -3.486,3.06 -4.317,5.138 -0.003,0.014 -0.002,0.02 -0.003,0.032 0.491,0.843 1.212,1.737 1.867,2.558 1.73,2.181 5.813,7.177 7.447,9.328"
             style="fill:#000000;fill-opacity:1;fill-rule:nonzero;stroke:none"
             id="path52" /></g><g
           id="g54"
           transform="translate(648.1763,546.176)"><path
             d="m 0,0 c 6.707,2.257 13.52,4.586 19.689,8.149 0.776,0.517 1.617,1.009 2.306,1.652 0.037,-3.884 -2.88,-7.33 -6.427,-8.907 -2.05,-0.98 -4.292,-1.812 -6.426,-2.66 C 2.637,-4.319 -3.962,-6.7 -10.6,-8.853 c -2.211,-0.714 -4.438,-1.386 -6.657,-1.947 -1.298,-0.304 -2.778,-0.695 -3.898,-0.65 -0.027,0.022 -0.056,0.046 -0.056,0.046 -1.111,1.073 -1.898,2.566 -3.377,3.576 C -16.404,-5.625 -7.972,-2.661 0,0 m 78.191,26.213 c -0.11,0.021 -0.216,-0.05 -0.238,-0.16 C 76.065,16.49 72.531,6.948 65.839,-0.235 54.646,-12.451 38.917,-13.716 23.39,-14.999 11.723,-16.483 0.267,-19.3 -11.15,-22.024 c -4.534,-1.094 -9.083,-2.243 -13.574,-3.201 -1.861,-0.365 -3.924,-0.951 -5.709,-0.139 -2.65,1.127 -4.219,4.497 -5.739,7.168 -1.591,2.853 -0.583,6.547 2.566,7.752 0,0 0.675,0.281 0.675,0.281 1.998,0.596 4.543,1.057 6.44,0.06 1.475,-0.7 2.361,-2.624 3.915,-3.63 0.263,-0.173 0.605,-0.299 0.923,-0.344 1.741,-0.135 3.475,0.499 5.045,0.927 6.743,2.122 13.249,4.795 19.767,7.464 2.109,0.865 7.705,3.165 9.725,4.022 3.314,1.316 6.767,2.954 8.761,6.135 1.376,2.099 1.95,4.709 1.448,7.198 C 22.977,12.318 22,12.34 21.842,11.71 21.704,11.331 21.192,10.833 20.682,10.452 19.026,9.246 17.131,8.374 15.247,7.534 7.805,4.296 -1.016,2.26 -8.852,0.014 c -4.739,-1.284 -11.602,-3.206 -16.275,-4.371 -0.833,-0.202 -1.629,-0.394 -2.456,-0.541 -0.37,-0.076 -0.637,-0.108 -0.99,-0.039 -3.188,0.767 -6.301,4.415 -7.923,7.199 -2.09,3.946 4.556,8.094 8.032,7.419 1.139,-0.276 2.92,-1.559 4.254,-2.311 2.595,-1.609 5.969,-0.191 8.441,0.745 6.576,2.759 12.634,6.63 18.809,9.972 1.114,0.577 2.692,1.456 3.749,2.096 2.673,1.648 4.716,4.443 5.108,7.488 0.955,-2.625 1.369,-5.482 1.39,-8.319 -0.005,-0.117 0.167,-0.139 0.199,-0.031 2.37,6.876 -0.494,15.034 -7.338,18.039 -0.943,0.418 -1.968,0.687 -3.047,0.706 -1.925,0 -3.847,-0.544 -5.524,0.575 -1.553,1.026 -2.749,2.634 -3.958,4.025 -2.208,2.497 -3.595,5.478 -3.966,8.795 0.758,2.085 0.847,4.482 0.532,6.755 -0.447,-3.606 -1.276,-7.727 -4.782,-9.32 -0.812,-0.39 -1.681,-0.843 -2.453,-1.3 -4.204,-2.458 -7.777,-5.803 -11.357,-9.005 -2.025,-1.748 -4.066,-3.986 -6.58,-4.831 -6.54,0.071 -13.06,-0.929 -19.45,-2.26 6.666,-0.11 13.252,0.151 19.845,-0.159 3.298,0.706 5.543,3.233 7.993,5.252 3.922,3.587 7.677,7.326 12.128,10.201 1.492,0.73 2.57,1.781 3.33,3.017 -0.068,-3.058 1.26,-6.226 3.555,-8.319 1.509,-1.308 3.098,-2.433 4.838,-3.417 1.715,-1.029 3.9,-0.768 5.747,-1.111 1.73,-0.405 3.238,-1.505 4.569,-2.655 C 9.2,32.813 10.421,31.036 11.311,29.098 11.142,25.872 8.901,23 5.997,21.478 4.973,20.937 3.293,20.18 2.223,19.71 -2.919,17.308 -7.91,14.661 -12.986,12.379 c -2.416,-1.049 -5.053,-2.184 -7.588,-2.581 -0.904,-0.094 -1.386,-0.156 -2.02,0.275 -0.89,0.549 -1.756,1.147 -2.683,1.716 -2.129,1.494 -5.064,1.682 -7.453,0.723 -4.304,-1.352 -8.846,-5.582 -7.487,-10.577 1.268,-3.428 3.736,-6.047 6.522,-8.275 0.203,-0.164 0.423,-0.326 0.653,-0.484 -4.24,-1.015 -7.57,-3.988 -7.402,-9.051 0.071,-1.425 0.378,-2.807 1.147,-4.193 1.125,-2.023 2.21,-4.419 3.909,-6.247 3.245,-3.632 6.966,-3.816 11.436,-2.798 4.665,0.908 9.196,1.967 13.763,2.981 10.652,2.37 23.37,5.494 34.077,7.042 16.185,1.539 32.771,3.832 43.822,17.216 6.542,7.824 9.603,17.912 10.643,27.868 0.01,0.102 -0.059,0.199 -0.162,0.219"
             style="fill:#000000;fill-opacity:1;fill-rule:nonzero;stroke:none"
             id="path56" /></g><g
           id="g58"
           transform="translate(749.2413,664.8776)"><path
             d="m 0,0 c 2.014,3.257 3.322,6.881 4.586,10.457 0.857,1.971 1.9,3.867 3.116,5.688 14.712,21.54 39.691,31.235 64.424,21.084 1.338,-0.575 2.765,-1.196 4.116,-1.785 0.904,-0.482 3.062,-1.513 4.014,-2.028 -3.416,2.072 -6.923,4.062 -10.684,5.508 C 45.384,49.124 19.85,38.62 5.508,17.602 3.803,15.072 2.271,12.228 1.313,9.302 -0.252,4.715 -2.491,0.352 -5.642,-3.341 c -6.341,-7.497 -15.083,-12.625 -23.918,-16.741 -16.217,-7.834 -35.58,-5.894 -51.773,1.15 10.679,-5.591 22.935,-8.413 35.008,-7.646 6.067,0.437 12.143,1.92 17.692,4.443 5.565,2.451 10.951,5.281 15.921,8.843 C -7.728,-9.748 -3.186,-5.286 0,0"
             style="fill:#000000;fill-opacity:1;fill-rule:nonzero;stroke:none"
             id="path60" /></g><g
           id="g62"
           transform="translate(877.9853,756.317)"><path
             d="m 0,0 c -1.007,8.723 -2.856,17.296 -6.026,25.518 -0.792,1.897 -3.605,0.922 -3.098,-1.038 1.52,-5.996 2.07,-12.308 1.492,-18.477 -1.852,-18.955 -11.587,-36.418 -23.597,-50.908 13.955,13.993 25.08,32.564 26.711,52.597 4.18,-21.462 2.23,-44.288 -7.667,-63.875 -2.882,-5.743 -6.45,-11.142 -10.383,-16.233 5.922,6.256 10.966,13.443 14.711,21.304 C -0.263,-35.334 1.971,-17.309 0,0"
             style="fill:#000000;fill-opacity:1;fill-rule:nonzero;stroke:none"
             id="path64" /></g><g
           id="g66"
           transform="translate(797.6471,555.0521)"><path
             d="M 0,0 C 1.005,2.136 13,13.627 21.615,21.581 21.609,21.213 21.456,20.8 21.153,20.282 18.145,14.916 14.328,9.825 10.518,4.969 8.749,2.876 6.964,0.44 4.705,-1.067 4.636,-1.09 4.489,-1.174 4.528,-1.149 4.544,-1.187 4.467,-1.159 4.422,-1.169 2.597,-1.162 0.747,-1.12 -1.062,-1.396 -0.616,-0.996 -0.252,-0.535 0,0 m -14.053,-1.07 c -2.668,0.638 -4.59,4.534 -5.437,6.871 2.031,1.644 3.92,3.445 5.625,5.412 0.751,-0.044 1.773,-0.087 2.866,-0.087 1.102,0 2.275,0.044 3.305,0.179 2.941,0.383 12.141,12.961 15.768,18.071 0.918,-0.418 1.834,-0.827 2.729,-1.222 3.34,-1.532 6.763,-2.74 9.631,-4.832 0.017,-0.014 0.029,-0.025 0.045,-0.039 C 15.707,18.878 -0.415,3.867 -1.83,0.861 -2.967,-1.555 -9.448,-2.173 -14.053,-1.07 m 8.228,26.901 c 1.542,4.938 1.594,10.055 1.08,15.135 1.649,-3.523 3.96,-6.707 7.35,-8.859 C 3.758,31.45 4.977,30.836 6.211,30.245 0.443,22.153 -6.38,13.66 -7.955,13.31 c -1.334,-0.175 -2.973,-0.181 -4.328,-0.141 2.83,3.701 5.054,7.915 6.458,12.662 m 62.416,87.807 c 3.434,-12.304 4.116,-27.132 -3.768,-37.801 -1.719,-2.179 -3.83,-4.053 -6.279,-5.345 0,0 -2.01,-1.141 -2.01,-1.141 -3.392,-2.007 -6.406,-4.677 -8.698,-7.94 -4.656,-6.526 -5.954,-15.066 -4.29,-22.812 1.259,-4.631 4.269,-8.652 7.442,-12.011 1.795,-2.003 3.891,-3.724 5.525,-5.798 -1.018,-2.025 -2.887,-4.173 -4.401,-6.072 -1.871,-2.279 -3.839,-4.5 -5.801,-6.726 C 28.38,1.348 22.297,-5.21 15.902,-11.423 c -2.128,-2.074 -4.3,-4.11 -6.58,-5.987 -1.148,-0.915 -2.29,-1.891 -3.569,-2.399 -4.025,-1.631 -8.753,0.085 -11.829,2.905 -2.255,2.028 -3.871,5.412 -2.367,8.272 0.499,0.887 1.065,1.834 1.797,2.548 2.86,3.152 7.323,2.873 11.226,2.575 3.728,0.272 11.289,10.576 13.692,13.787 1.76,2.454 3.473,4.916 4.981,7.622 0.963,1.625 1.9,3.733 0.854,5.564 -0.958,1.732 -2.417,2.565 -3.953,3.462 -2.783,1.479 -5.582,2.499 -8.337,3.635 -1.859,0.765 -5.362,2.194 -7.144,3.028 -4.964,2.438 -8.108,7.488 -10.163,12.931 -0.229,1.423 -0.475,2.837 -0.72,4.237 -2.62,13.982 -0.636,26.283 4.817,39.372 -5.457,-9.505 -8.891,-20.45 -8.44,-31.539 0.109,-5.564 1.176,-11.004 1.741,-16.31 1.567,-10.728 -1.421,-20.849 -8.317,-29.173 -10.414,-12.376 -26.795,-18.058 -42.49,-20.102 13.038,-0.13 27.118,3.649 37.74,11.503 0.974,-2.47 3.122,-6.704 6.635,-7.545 1.398,-0.334 3.301,-0.568 5.281,-0.568 1.043,0 2.107,0.068 3.129,0.217 -1.284,-0.94 -2.353,-2.172 -3.1,-3.57 -4.141,-6.978 4.094,-13.995 10.74,-14.471 3.196,-0.42 6.146,1.107 8.512,3.125 4.682,3.771 9.104,7.786 13.459,11.884 7.609,7.225 15.217,14.505 21.794,22.721 0.904,1.241 1.949,2.46 2.414,3.999 0.118,0.435 0.11,0.915 -0.041,1.346 -0.73,1.594 -2.046,2.756 -3.183,3.989 -3.938,4.047 -7.995,8.357 -9.464,13.852 -2.022,9.643 1.296,20.115 9.456,25.936 2.365,1.806 5.297,3.036 7.466,5.154 4.679,4.286 7.244,10.356 8.259,16.468 1.492,8.965 -0.027,18.342 -3.288,26.701 0,0 -0.319,-0.108 -0.319,-0.108"
             style="fill:#000000;fill-opacity:1;fill-rule:nonzero;stroke:none"
             id="path68" /></g><g
           id="g70"
           transform="translate(303.4286,99.0206)"><path
             d="m 0,0 c -5.6,0 -10.036,0.452 -13.308,1.356 -3.275,0.905 -4.91,2.177 -4.91,3.812 0,0.86 0.624,2.304 1.874,4.329 1.247,2.022 2.216,3.036 2.907,3.036 1.033,0 1.55,-0.216 1.55,-0.646 0,-0.258 -0.151,-0.561 -0.452,-0.904 -0.303,-0.346 -0.452,-0.691 -0.452,-1.034 0,-0.259 0.537,-0.646 1.615,-1.163 1.076,-0.517 2.733,-0.991 4.974,-1.421 2.239,-0.432 4.952,-0.646 8.14,-0.646 5.082,0 9.539,0.989 13.373,2.971 3.832,1.981 6.783,4.478 8.851,7.495 2.067,3.014 3.101,5.943 3.101,8.785 0,3.703 -1.789,6.891 -5.362,9.562 -3.576,2.668 -9.326,5.21 -17.249,7.623 -7.668,2.497 -13.589,4.587 -17.766,6.266 -4.179,1.68 -7.559,3.747 -10.143,6.202 -2.584,2.455 -3.876,5.447 -3.876,8.98 0,4.736 2.669,9.41 8.011,14.019 5.339,4.607 11.929,8.354 19.768,11.241 7.837,2.885 15.117,4.328 21.836,4.328 3.444,0 5.297,-0.69 5.556,-2.067 0.258,-1.379 0.387,-2.929 0.387,-4.652 0,-1.292 -0.474,-1.938 -1.421,-1.938 -0.432,0 -0.927,0.15 -1.486,0.452 -0.561,0.301 -1.056,0.537 -1.486,0.711 -0.516,0.172 -1.12,0.344 -1.808,0.517 -0.691,0.172 -1.68,0.258 -2.972,0.258 -4.48,0 -9.864,-1.162 -16.151,-3.488 -6.289,-2.326 -11.737,-5.213 -16.345,-8.657 -4.609,-3.446 -6.912,-6.763 -6.912,-9.949 0,-2.584 1.054,-4.825 3.166,-6.719 2.109,-1.895 4.929,-3.51 8.462,-4.845 C -4.996,52.478 0,50.821 6.46,48.84 15.935,46.082 22.934,42.981 27.456,39.537 31.978,36.091 34.24,31.87 34.24,26.875 34.24,22.567 32.796,18.325 29.911,14.148 27.024,9.969 22.977,6.567 17.766,3.941 12.553,1.314 6.632,0 0,0"
             style="fill:#960b5a;fill-opacity:1;fill-rule:nonzero;stroke:none"
             id="path72" /></g><g
           id="g74"
           transform="translate(403.0448,153.1579)"><path
             d="m 0,0 c -0.69,0 -1.466,0.366 -2.326,1.098 -0.862,0.731 -1.465,1.098 -1.809,1.098 -2.325,0 -6.03,-1.594 -11.111,-4.78 -5.084,-3.188 -10.294,-6.935 -15.634,-11.241 -5.342,-4.308 -9.432,-7.968 -12.275,-10.982 l 0.129,-2.326 c 6.546,-3.016 13.825,-6.246 21.836,-9.691 8.011,-3.446 13.567,-5.471 16.668,-6.072 1.205,-0.174 2.41,-0.303 3.618,-0.388 1.205,-0.087 2.067,-0.129 2.584,-0.129 0.775,0 1.421,-0.045 1.938,-0.129 0.517,-0.087 0.775,-0.259 0.775,-0.517 0,-1.034 -0.797,-2.067 -2.39,-3.101 -1.595,-1.034 -3.985,-1.551 -7.171,-1.551 -2.843,0 -6.699,1.054 -11.564,3.166 -4.867,2.109 -10.617,4.887 -17.249,8.333 l -8.14,4.006 c 1.118,-10.94 1.68,-16.969 1.68,-18.089 0,-0.946 -0.475,-1.722 -1.422,-2.326 -0.948,-0.601 -1.982,-0.904 -3.101,-0.904 -0.69,0 -1.249,1.034 -1.679,3.101 -0.432,2.067 -0.949,6.158 -1.551,12.274 l -0.904,7.882 c -1.034,0.43 -1.938,1.054 -2.714,1.874 -0.775,0.817 -1.162,1.571 -1.162,2.261 0,1.034 0.86,2.238 2.584,3.618 -0.087,4.651 -0.323,11.283 -0.711,19.897 -0.388,8.613 -0.668,14.901 -0.84,18.865 l -0.646,17.959 c 0,2.41 0.301,4.478 0.905,6.202 0.601,1.722 1.938,2.584 4.005,2.584 0.775,0 1.292,-0.152 1.55,-0.452 0.259,-0.303 0.388,-0.885 0.388,-1.744 0,-3.964 0.279,-13.159 0.84,-27.586 0.559,-14.429 1.012,-24.701 1.357,-30.815 19.207,18.26 33.248,27.391 42.121,27.391 1.809,0 3.337,-0.323 4.587,-0.969 C 4.413,7.171 5.039,6.503 5.039,5.814 5.039,4.607 4.458,3.337 3.295,2.002 2.132,0.666 1.034,0 0,0"
             style="fill:#960b5a;fill-opacity:1;fill-rule:nonzero;stroke:none"
             id="path76" /></g><g
           id="g78"
           transform="translate(453.1761,147.4727)"><path
             d="m 0,0 c -1.034,-7.58 -1.595,-11.844 -1.68,-12.791 -1.12,-10.595 -1.918,-18.67 -2.39,-24.226 -0.475,-5.556 -0.711,-10.573 -0.711,-15.053 0,-3.703 0.279,-6.632 0.84,-8.786 0.559,-2.152 1.163,-3.854 1.809,-5.103 0.646,-1.248 0.969,-2.003 0.969,-2.262 0,-0.775 -0.69,-1.463 -2.067,-2.067 -1.379,-0.601 -2.8,-0.904 -4.264,-0.904 -1.121,0 -2.003,1.508 -2.649,4.522 -0.646,3.016 -0.969,7.71 -0.969,14.084 0,4.824 0.473,11.325 1.422,19.509 l 1.938,17.831 c -2.326,-4.48 -5.191,-8.766 -8.593,-12.856 -3.403,-4.093 -6.912,-6.137 -10.53,-6.137 -3.359,0 -6.375,2.927 -9.044,8.786 -2.671,5.856 -4.761,12.488 -6.267,19.897 -1.508,7.407 -2.261,12.834 -2.261,16.28 0,2.152 0.646,3.231 1.938,3.231 1.894,0 3.101,-1.767 3.618,-5.298 3.273,-23.947 7.837,-35.919 13.696,-35.919 2.325,0 4.371,0.924 6.137,2.777 1.765,1.852 3.854,4.717 6.267,8.593 1.118,1.809 2.325,4.219 3.617,7.236 1.292,3.014 2.282,5.511 2.972,7.493 l 0.904,13.05 c 0.172,1.98 0.43,3.38 0.776,4.199 0.343,0.818 1.033,1.228 2.067,1.228 0.86,0 1.722,-0.497 2.584,-1.486 0.86,-0.991 1.292,-1.961 1.292,-2.907 C 1.421,10.938 0.947,6.632 0,0"
             style="fill:#960b5a;fill-opacity:1;fill-rule:nonzero;stroke:none"
             id="path80" /></g><g
           id="g82"
           transform="translate(526.9493,132.3555)"><path
             d="m 0,0 -8.657,-1.033 c -2.067,-0.259 -4.005,-0.453 -5.814,-0.582 -1.809,-0.129 -4.006,-0.194 -6.59,-0.194 -1.12,0 -2.111,0.214 -2.971,0.646 -0.863,0.43 -1.292,1.163 -1.292,2.197 0,1.118 0.387,1.851 1.162,2.197 0.776,0.342 2.068,0.516 3.877,0.516 3.272,0 5.576,0.02 6.912,0.065 1.335,0.042 2.52,0.193 3.553,0.452 0.343,0.085 1.335,0.279 2.972,0.581 1.635,0.301 4.264,0.711 7.882,1.228 0.688,0.084 1.27,0.646 1.744,1.68 0.472,1.033 0.969,1.55 1.486,1.55 0.947,0 1.916,-0.539 2.907,-1.615 C 8.16,6.61 8.657,5.511 8.657,4.393 8.657,2.927 8.053,1.916 6.848,1.357 5.641,0.795 3.359,0.343 0,0"
             style="fill:#960b5a;fill-opacity:1;fill-rule:nonzero;stroke:none"
             id="path84" /></g><g
           id="g86"
           transform="translate(634.834,123.6991)"><path
             d="m 0,0 c -5.255,-4.652 -10.659,-9.045 -16.215,-13.179 -5.556,-4.134 -10.187,-7.064 -13.89,-8.786 -0.258,-0.947 -0.646,-1.658 -1.162,-2.132 -0.518,-0.473 -1.292,-0.711 -2.326,-0.711 -0.776,0 -1.337,0.152 -1.68,0.453 -0.345,0.303 -0.517,0.839 -0.517,1.615 0,0.517 0.194,2.669 0.582,6.46 0.387,3.789 0.581,8.225 0.581,13.308 0,8.612 -0.129,16.409 -0.388,23.387 -0.173,8.095 -0.258,13.78 -0.258,17.055 0,5.081 0.517,9.258 1.55,12.532 0.776,2.068 2.152,3.102 4.135,3.102 0.689,0 1.312,-0.13 1.873,-0.388 0.56,-0.258 0.84,-0.646 0.84,-1.163 -0.086,-0.432 -0.539,-1.938 -1.356,-4.522 -0.82,-2.584 -1.228,-5.039 -1.228,-7.365 0,-6.46 0.13,-13.524 0.388,-21.19 0.172,-9.82 0.258,-16.625 0.258,-20.414 0,-6.461 -0.044,-10.337 -0.129,-11.629 3.101,1.206 7.3,3.703 12.598,7.494 5.297,3.789 9.754,7.236 13.372,10.337 7.494,6.718 12.963,12.747 16.409,18.089 3.445,5.339 5.169,10.895 5.169,16.667 0,6.977 -4.373,11.758 -13.115,14.342 -8.743,2.584 -20.178,3.876 -34.304,3.876 -4.308,0 -10.078,-0.517 -17.313,-1.55 -1.379,-0.087 -3.534,-0.517 -6.46,-1.292 -1.293,-0.433 -2.197,-0.646 -2.714,-0.646 -0.69,0 -1.357,0.559 -2.003,1.679 -0.646,1.119 -0.969,2.239 -0.969,3.36 0,0.43 0.303,0.84 0.905,1.227 0.603,0.388 1.55,0.666 2.842,0.84 5.169,0.688 9.582,1.205 13.244,1.551 3.66,0.342 7.946,0.516 12.856,0.516 15.676,0 28.446,-1.766 38.31,-5.297 9.861,-3.533 14.793,-9.519 14.793,-17.96 0,-6.719 -1.938,-13.094 -5.814,-19.122 C 14.988,14.513 8.699,7.666 0,0"
             style="fill:#960b5a;fill-opacity:1;fill-rule:nonzero;stroke:none"
             id="path88" /></g><g
           id="g90"
           transform="translate(684.1904,102.3801)"><path
             d="m 0,0 c -5.772,0 -10.036,1.593 -12.792,4.78 -2.758,3.186 -4.135,7.149 -4.135,11.887 0,4.135 0.753,9.259 2.261,15.376 1.506,6.115 3.638,11.584 6.396,16.409 0.172,0.343 0.882,1.615 2.132,3.812 1.248,2.196 2.649,3.876 4.199,5.039 1.551,1.163 3.187,1.744 4.911,1.744 0.774,0 1.486,-0.194 2.131,-0.581 0.647,-0.388 0.969,-0.885 0.969,-1.486 0,-0.174 -0.238,-0.582 -0.71,-1.228 C 4.888,55.106 4.522,54.609 4.264,54.266 1.334,50.733 -1.034,47.245 -2.843,43.801 -5.256,39.408 -7.129,35.057 -8.464,30.751 -9.8,26.443 -10.466,21.749 -10.466,16.667 -10.466,9.862 -6.332,6.46 1.937,6.46 c 3.877,0 7.472,1.119 10.789,3.36 3.315,2.238 5.963,4.974 7.946,8.204 1.981,3.23 2.972,6.18 2.972,8.851 0,3.014 -0.991,5.64 -2.972,7.881 -1.983,2.239 -4.695,4.607 -8.139,7.107 -2.241,1.635 -3.877,2.971 -4.911,4.005 -1.033,1.034 -1.55,1.894 -1.55,2.584 0,1.034 0.731,1.874 2.197,2.52 1.463,0.646 3.186,0.968 5.168,0.968 1.119,0 1.851,-0.064 2.196,-0.193 0.344,-0.129 0.517,-0.368 0.517,-0.711 0,-0.173 -0.151,-0.452 -0.452,-0.84 -0.303,-0.387 -0.453,-0.71 -0.453,-0.969 0,-0.258 0.86,-1.12 2.585,-2.584 3.445,-2.842 6.331,-5.729 8.657,-8.657 2.325,-2.929 3.488,-6.375 3.488,-10.336 0,-3.359 -1.249,-7.235 -3.747,-11.629 C 23.729,11.628 20.198,7.859 15.633,4.716 11.067,1.57 5.856,0 0,0"
             style="fill:#960b5a;fill-opacity:1;fill-rule:nonzero;stroke:none"
             id="path92" /></g><g
           id="g94"
           transform="translate(768.6902,72.7919)"><path
             d="m 0,0 c -3.705,-3.531 -7.559,-6.396 -11.564,-8.592 -4.005,-2.197 -7.474,-3.295 -10.401,-3.295 -1.637,0 -2.8,0.41 -3.489,1.228 -0.69,0.819 -1.034,1.788 -1.034,2.907 0,1.033 1.938,2.241 5.815,3.618 5.856,1.895 11.283,5.083 16.28,9.56 3.876,3.447 6.719,7.365 8.527,11.759 1.81,4.392 2.714,8.872 2.714,13.437 0,5.168 -0.323,9.904 -0.969,14.212 -0.646,4.307 -1.66,9.604 -3.037,15.893 -1.55,6.632 -2.628,12.274 -3.23,16.926 -1.466,-3.963 -3.726,-8.744 -6.783,-14.342 -3.059,-5.6 -6.699,-10.983 -10.918,-16.151 -3.963,-4.91 -7.559,-8.572 -10.789,-10.982 -3.23,-2.413 -6.353,-3.618 -9.367,-3.618 -2.584,0 -4.502,1.012 -5.75,3.036 -1.25,2.023 -1.874,4.801 -1.874,8.334 0,5.857 1.81,12.747 5.427,20.673 3.618,7.924 8.14,14.729 13.567,20.415 5.427,5.684 10.766,8.527 16.022,8.527 1.808,0 3.208,-0.646 4.198,-1.938 0.99,-1.292 1.486,-2.843 1.486,-4.651 0,-2.326 -0.474,-3.489 -1.421,-3.489 -0.258,0 -0.581,0.323 -0.969,0.969 -0.388,0.646 -0.84,1.228 -1.356,1.744 -0.517,0.517 -1.078,0.776 -1.68,0.776 -4.393,0 -8.851,-2.456 -13.373,-7.365 -4.522,-4.91 -8.269,-10.66 -11.241,-17.249 -2.972,-6.589 -4.457,-11.996 -4.457,-16.216 0,-2.325 0.323,-4.005 0.969,-5.038 0.646,-1.034 1.657,-1.551 3.036,-1.551 2.067,0 4.565,1.205 7.494,3.618 2.927,2.41 6.416,6.202 10.466,11.37 3.618,4.564 6.912,9.884 9.884,15.957 2.972,6.072 5.233,11.864 6.783,17.378 0.172,0.517 0.452,0.947 0.84,1.292 0.388,0.343 0.84,0.517 1.357,0.517 0.775,0 1.571,-0.238 2.39,-0.711 C 4.37,88.484 4.78,87.989 4.78,87.472 4.78,87.127 4.716,86.762 4.587,86.374 4.458,85.986 4.348,85.748 4.264,85.664 4.865,80.925 6.286,73.56 8.528,63.569 10.162,56.505 11.39,50.584 12.21,45.804 13.027,41.023 13.437,36.349 13.437,31.785 13.437,25.066 12.101,18.951 9.432,13.437 6.761,7.926 3.618,3.446 0,0"
             style="fill:#960b5a;fill-opacity:1;fill-rule:nonzero;stroke:none"
             id="path96" /></g><g
           id="g98"
           transform="translate(813.5971,133.9064)"><path
             d="M 0,0 C -1.293,0 -2.142,-0.019 -2.547,-0.056 -2.622,-0.72 -2.658,-1.661 -2.658,-2.88 l 0.277,-11.296 c 0.406,0.074 1.236,0.35 2.491,0.831 2.916,1.292 5.131,2.676 6.645,4.153 1.514,1.476 2.271,2.99 2.271,4.54 0,0.739 -0.332,1.468 -0.997,2.188 -0.665,0.719 -1.68,1.31 -3.046,1.771 C 3.617,-0.231 1.956,0 0,0 m -7.974,1.274 c 0.997,0.221 2.279,0.405 3.848,0.553 1.569,0.147 3.036,0.222 4.403,0.222 2.251,0 4.217,-0.305 5.897,-0.914 1.679,-0.609 2.963,-1.394 3.849,-2.353 0.886,-0.961 1.329,-1.957 1.329,-2.991 0,-2.104 -0.702,-3.931 -2.105,-5.482 -1.403,-1.55 -2.981,-2.787 -4.734,-3.71 -1.754,-0.923 -3.979,-1.938 -6.673,-3.045 1.956,-0.407 4.411,-1.034 7.365,-1.883 2.547,-0.739 4.375,-1.311 5.482,-1.716 1.181,-0.407 2.049,-0.795 2.603,-1.163 2.473,2.251 4.521,4.964 6.146,8.139 1.624,3.175 2.436,6.073 2.436,8.694 0,4.541 -1.965,7.817 -5.897,9.829 C 12.044,7.466 7.309,8.564 1.772,8.749 1.07,8.785 0.59,8.923 0.332,9.164 c -0.258,0.24 -0.387,0.729 -0.387,1.468 -1.625,0 -2.844,-0.352 -3.655,-1.052 -3.286,-2.659 -6.184,-5.87 -8.694,-9.636 1.218,0.48 2.694,0.923 4.43,1.33 m 18.218,-24.088 c -1.661,0.922 -3.489,1.707 -5.482,2.353 -1.993,0.646 -4.301,1.283 -6.922,1.911 l 0.222,-4.264 c 0.036,-0.333 0.166,-1.016 0.387,-2.049 0.074,-0.222 0.111,-0.369 0.111,-0.443 0,-0.369 -0.166,-0.664 -0.498,-0.886 -0.333,-0.221 -0.664,-0.332 -0.997,-0.332 -0.554,0 -0.868,0.332 -0.941,0.996 -0.148,0.739 -0.222,1.496 -0.222,2.271 l -0.111,2.713 -0.11,2.824 -0.056,0.056 -0.166,0.11 c -0.148,0.147 -0.258,0.314 -0.332,0.499 -0.148,0.332 -0.221,0.756 -0.221,1.273 0,0.369 0.166,0.646 0.498,0.831 l 0.055,0.055 -0.222,11.573 0.056,3.102 -2.658,-0.443 c -2.289,-0.554 -4.006,-1.145 -5.15,-1.773 -0.148,-0.074 -0.406,-0.221 -0.775,-0.443 -0.369,-0.221 -0.72,-0.351 -1.052,-0.387 -1.661,-2.917 -2.926,-5.861 -3.793,-8.832 -0.868,-2.973 -1.301,-5.658 -1.301,-8.057 0,-1.847 0.562,-3.563 1.689,-5.15 1.125,-1.588 2.63,-2.843 4.513,-3.766 1.882,-0.923 3.912,-1.384 6.09,-1.384 3.729,0 6.913,0.582 9.553,1.744 2.638,1.163 5.49,2.999 8.555,5.51 z m 4.596,-0.111 c -3.692,-3.433 -7.309,-5.972 -10.853,-7.614 -3.544,-1.642 -7.31,-2.464 -11.297,-2.464 -2.436,0 -4.808,0.553 -7.115,1.661 -2.307,1.108 -4.181,2.556 -5.62,4.347 -1.44,1.79 -2.16,3.645 -2.16,5.565 0,3.58 0.682,7.346 2.049,11.296 1.365,3.95 3.405,7.863 6.119,11.74 2.713,3.876 6.026,7.438 9.939,10.687 0.443,0.368 0.859,0.627 1.246,0.775 0.388,0.147 0.821,0.222 1.301,0.222 1.218,0 1.828,-0.831 1.828,-2.492 0.036,0.036 0.129,0.073 0.276,0.111 0.148,0.036 0.333,0.073 0.554,0.11 0.148,0 0.341,0.018 0.582,0.056 0.239,0.036 0.544,0.055 0.913,0.055 0.333,0 0.61,-0.019 0.831,-0.055 6.128,-0.554 11.075,-2.059 14.84,-4.514 3.766,-2.455 5.648,-6.027 5.648,-10.714 0,-3.322 -0.794,-6.609 -2.381,-9.857 -1.587,-3.249 -3.82,-6.221 -6.7,-8.915"
             style="fill:#960b5a;fill-opacity:1;fill-rule:nonzero;stroke:none"
             id="path100" /></g><g
           id="g102"
           transform="translate(393.3086,71.0011)"><path
             d="m 0,0 c -0.997,-0.553 -2.557,-1.145 -4.679,-1.772 -2.123,-0.628 -3.868,-1.071 -5.233,-1.329 -2.141,-0.406 -4.291,-0.729 -6.451,-0.969 -2.16,-0.24 -3.553,-0.379 -4.181,-0.415 0.036,-2.141 0.092,-4.347 0.166,-6.617 0.074,-2.27 0.129,-3.83 0.166,-4.68 1.44,0.185 3.6,0.535 6.479,1.053 l 2.104,0.332 c 2.326,0.406 4.116,1.144 5.372,2.215 0.664,0.516 1.144,0.775 1.44,0.775 0.257,0 0.47,-0.138 0.636,-0.415 0.166,-0.277 0.249,-0.563 0.249,-0.858 0,-0.665 -0.747,-1.394 -2.242,-2.188 -1.495,-0.794 -3.148,-1.375 -4.956,-1.744 -1.514,-0.332 -3.212,-0.646 -5.095,-0.941 -1.882,-0.297 -3.12,-0.481 -3.71,-0.554 0.222,-6.313 0.867,-11.001 1.938,-14.065 1.071,-0.37 2.123,-0.637 3.157,-0.803 1.033,-0.166 2.362,-0.249 3.987,-0.249 1.624,0 3.174,0.212 4.651,0.636 1.476,0.424 2.667,0.951 3.572,1.579 0.904,0.627 1.356,1.218 1.356,1.772 0,0.295 -0.055,0.581 -0.166,0.858 -0.111,0.277 -0.258,0.563 -0.443,0.858 -0.074,0.111 -0.194,0.286 -0.36,0.527 -0.166,0.239 -0.249,0.433 -0.249,0.581 0,0.368 0.406,0.554 1.218,0.554 0.59,0 1.098,-0.25 1.523,-0.748 0.424,-0.498 0.637,-1.043 0.637,-1.633 0,-1.183 -0.526,-2.345 -1.578,-3.489 -1.052,-1.145 -2.492,-2.076 -4.319,-2.797 -1.828,-0.719 -3.849,-1.079 -6.064,-1.079 -2.252,0 -4.098,0.12 -5.537,0.36 -1.44,0.24 -2.529,0.711 -3.267,1.412 -0.886,0.996 -1.505,2.731 -1.855,5.205 -0.352,2.473 -0.656,5.777 -0.914,9.911 -0.702,-0.184 -1.487,-0.341 -2.353,-0.47 -0.868,-0.129 -1.523,-0.194 -1.966,-0.194 -0.443,0 -0.803,0.139 -1.08,0.415 -0.277,0.278 -0.415,0.618 -0.415,1.025 0,0.258 0.046,0.479 0.138,0.664 0.092,0.185 0.23,0.295 0.415,0.333 1.219,0.147 2.105,0.239 2.658,0.277 l 2.381,0.276 c -0.147,4.763 -0.295,8.639 -0.443,11.629 -0.553,0 -0.996,-0.019 -1.328,-0.055 l -2.548,-0.056 c -0.332,0 -0.591,0.092 -0.775,0.277 -0.185,0.184 -0.277,0.388 -0.277,0.609 0,0.886 0.59,1.476 1.772,1.772 0.443,0.074 1.006,0.157 1.689,0.249 0.683,0.092 1.135,0.139 1.357,0.139 0.7,0.775 1.476,1.163 2.325,1.163 0.148,0 0.268,-0.121 0.36,-0.361 0.092,-0.24 0.139,-0.414 0.139,-0.525 2.436,0.111 5.334,0.387 8.694,0.83 2.215,0.295 5.629,0.997 10.244,2.105 L 0.387,1.828 C 0.756,1.828 0.941,1.606 0.941,1.163 0.941,0.72 0.627,0.332 0,0"
             style="fill:#960b5a;fill-opacity:1;fill-rule:nonzero;stroke:none"
             id="path104" /></g><g
           id="g106"
           transform="translate(418.1714,74.7115)"><path
             d="m 0,0 c 0,-0.739 -0.037,-2.188 -0.111,-4.347 -0.074,-2.16 -0.111,-4.329 -0.111,-6.506 0,-4.209 0.092,-8.5 0.277,-12.875 0.185,-4.374 0.332,-7.245 0.443,-8.611 0,-0.221 0.018,-0.461 0.056,-0.719 0.036,-0.259 0.073,-0.499 0.11,-0.72 0.147,-1.034 0.222,-1.662 0.222,-1.883 0,-0.37 -0.268,-0.72 -0.803,-1.052 -0.536,-0.332 -0.951,-0.499 -1.246,-0.499 -0.407,0 -0.674,0.157 -0.803,0.471 -0.13,0.314 -0.194,0.748 -0.194,1.301 0,2.03 0.056,4.154 0.166,6.368 l 0.056,3.102 c 0,1.033 -0.019,2.389 -0.056,4.069 -0.037,1.68 -0.092,3.092 -0.166,4.237 -1.882,-6.055 -4.014,-11.067 -6.395,-15.035 -2.381,-3.968 -4.956,-5.952 -7.725,-5.952 -1.255,0 -2.317,0.591 -3.184,1.772 -0.868,1.181 -1.301,2.879 -1.301,5.094 0,2.916 0.987,6.091 2.962,9.524 1.975,3.433 4.227,6.387 6.756,8.86 2.528,2.473 4.402,3.71 5.62,3.71 1.181,0 1.772,-0.387 1.772,-1.162 0,-0.518 -0.175,-1.117 -0.526,-1.8 -0.351,-0.684 -0.739,-1.302 -1.163,-1.855 -0.425,-0.554 -0.674,-0.831 -0.747,-0.831 -0.075,0 -0.158,0.028 -0.249,0.083 -0.093,0.055 -0.139,0.12 -0.139,0.194 0,0.184 0.092,0.498 0.277,0.941 0.184,0.444 0.277,0.738 0.277,0.887 0,0.184 -0.019,0.313 -0.056,0.387 -0.037,0.073 -0.147,0.111 -0.332,0.111 -0.775,0 -2.169,-1.062 -4.18,-3.184 -2.013,-2.123 -3.813,-4.643 -5.4,-7.558 -1.587,-2.918 -2.381,-5.63 -2.381,-8.141 0,-0.886 0.185,-1.716 0.554,-2.491 0.369,-0.776 0.978,-1.163 1.827,-1.163 2.695,0 5.196,2.279 7.504,6.838 2.306,4.559 4.309,9.736 6.008,15.533 l -0.111,4.651 c -0.111,4.098 -0.166,6.276 -0.166,6.534 0,2.215 0.092,3.802 0.277,4.762 0.073,0.369 0.157,0.627 0.249,0.776 0.092,0.147 0.285,0.221 0.581,0.221 0.369,0 0.738,-0.12 1.108,-0.36 0.369,-0.24 0.554,-0.563 0.554,-0.969 z"
             style="fill:#960b5a;fill-opacity:1;fill-rule:nonzero;stroke:none"
             id="path108" /></g><g
           id="g110"
           transform="translate(445.8579,35.8944)"><path
             d="m 0,0 c -0.739,0 -1.412,0.775 -2.021,2.325 -0.609,1.551 -0.988,3.157 -1.135,4.818 -0.149,1.587 -0.259,4.799 -0.333,9.635 -0.037,0.775 -0.055,1.559 -0.055,2.353 0,0.794 -0.019,1.468 -0.055,2.022 -1.071,-2.548 -2.529,-5.446 -4.375,-8.694 -1.846,-3.249 -3.701,-6.036 -5.565,-8.361 -1.865,-2.326 -3.387,-3.489 -4.568,-3.489 -1.219,0 -2.021,0.645 -2.409,1.938 -0.388,1.292 -0.581,3.341 -0.581,6.146 0,2.621 0.34,5.593 1.024,8.916 0.682,3.322 1.467,5.851 2.353,7.586 0.369,0.775 0.683,1.301 0.942,1.578 0.257,0.277 0.553,0.415 0.885,0.415 0.923,0 1.385,-0.185 1.385,-0.553 0,-0.185 -0.185,-0.609 -0.554,-1.274 -0.997,-1.846 -1.864,-4.062 -2.602,-6.645 -0.739,-2.584 -1.108,-6.055 -1.108,-10.41 0,-2.917 0.406,-4.375 1.218,-4.375 0.96,0 2.261,1.061 3.904,3.184 1.642,2.123 3.276,4.661 4.901,7.614 1.624,2.953 2.86,5.519 3.71,7.697 0.295,0.738 0.627,1.883 0.997,3.433 0.11,0.628 0.221,1.08 0.332,1.357 0.111,0.277 0.24,0.415 0.387,0.415 0.406,0 0.849,-0.166 1.329,-0.498 0.48,-0.332 0.72,-0.683 0.72,-1.052 0,-1.772 0.064,-4.809 0.194,-9.109 C -0.951,12.671 -0.794,9.69 -0.609,8.029 -0.462,6.589 -0.194,5.463 0.194,4.651 0.581,3.839 0.959,3.202 1.329,2.741 1.697,2.279 1.883,1.993 1.883,1.882 1.883,1.291 1.717,0.83 1.384,0.498 1.052,0.166 0.59,0 0,0"
             style="fill:#960b5a;fill-opacity:1;fill-rule:nonzero;stroke:none"
             id="path112" /></g><g
           id="g114"
           transform="translate(465.6257,43.868)"><path
             d="m 0,0 c -1.92,-2.326 -3.646,-4.117 -5.178,-5.371 -1.532,-1.256 -3.128,-1.883 -4.789,-1.883 -1.404,0 -2.557,0.609 -3.461,1.828 -0.905,1.217 -1.357,2.62 -1.357,4.208 0,2.362 0.627,5.352 1.883,8.97 1.254,3.618 2.842,6.756 4.762,9.414 1.919,2.658 3.839,3.987 5.759,3.987 0.811,0 1.513,-0.296 2.104,-0.886 0.332,-0.332 0.645,-0.776 0.941,-1.329 0.296,-0.554 0.443,-1.052 0.443,-1.495 0,-0.628 -0.083,-1.357 -0.249,-2.187 C 0.692,14.425 0.517,14.01 0.332,14.01 c -0.369,0 -0.609,0.202 -0.72,0.609 -0.11,0.406 -0.185,0.922 -0.221,1.55 -0.111,0.96 -0.222,1.597 -0.332,1.911 -0.111,0.313 -0.277,0.47 -0.499,0.47 -1.735,0 -3.415,-1.209 -5.039,-3.627 -1.625,-2.418 -2.954,-5.224 -3.987,-8.416 -1.034,-3.194 -1.55,-5.658 -1.55,-7.393 0,-2.437 0.811,-3.654 2.436,-3.654 1.181,0 2.261,0.295 3.24,0.885 0.977,0.591 2.002,1.421 3.073,2.492 1.993,2.03 3.544,3.784 4.651,5.261 0.074,0.111 0.286,0.396 0.637,0.858 0.351,0.461 0.6,0.692 0.748,0.692 0.443,0 0.664,-0.166 0.664,-0.498 C 3.433,4.928 3.054,4.245 2.298,3.101 1.541,1.956 0.775,0.922 0,0"
             style="fill:#960b5a;fill-opacity:1;fill-rule:nonzero;stroke:none"
             id="path116" /></g><g
           id="g118"
           transform="translate(491.7614,54.4447)"><path
             d="m 0,0 c 0.443,1.107 0.664,2.306 0.664,3.599 0,0.775 -0.231,1.448 -0.692,2.021 -0.462,0.572 -1.079,0.859 -1.855,0.859 -0.923,0 -2.104,-0.629 -3.544,-1.883 -1.661,-1.403 -3.415,-3.277 -5.26,-5.621 -1.847,-2.344 -3.378,-4.661 -4.596,-6.949 -1.218,-2.29 -1.827,-4.098 -1.827,-5.427 0,-1.107 0.516,-1.661 1.55,-1.661 1.993,0 3.913,0.738 5.759,2.215 1.845,1.476 3.497,3.24 4.956,5.288 C -3.387,-5.51 -1.772,-2.99 0,0 m 4.817,-15.56 c 0,-0.443 -0.184,-0.951 -0.553,-1.523 -0.37,-0.572 -0.739,-0.859 -1.108,-0.859 -0.628,0 -1.107,0.388 -1.439,1.164 -0.333,0.775 -0.499,1.679 -0.499,2.713 0,0.886 0.056,3.544 0.166,7.974 l 0.056,2.104 c 0,0.848 -0.222,1.458 -0.665,1.827 -1.661,-2.806 -3.211,-5.242 -4.651,-7.309 -1.44,-2.068 -3.267,-4.015 -5.482,-5.842 -2.215,-1.828 -4.541,-2.741 -6.977,-2.741 -1.182,0 -2.096,0.369 -2.741,1.107 -0.647,0.738 -0.969,1.698 -0.969,2.88 0,1.476 0.664,3.497 1.993,6.063 1.329,2.566 3.027,5.168 5.095,7.808 2.067,2.639 4.133,4.808 6.201,6.506 1.366,1.108 2.455,1.855 3.267,2.243 0.812,0.388 1.532,0.581 2.16,0.581 0.59,0 1.199,-0.184 1.827,-0.553 C 1.126,8.214 1.661,7.697 2.104,7.033 2.547,6.368 2.769,5.611 2.769,4.762 2.769,3.617 2.455,2.528 1.827,1.495 l 0.942,0.277 c 0.406,0 0.645,-0.498 0.72,-1.495 0.036,-0.591 0.083,-1.792 0.138,-3.6 0.055,-1.809 0.101,-3.304 0.139,-4.485 0.036,-1.218 0.073,-2.4 0.11,-3.544 0.037,-1.145 0.074,-2.049 0.111,-2.713 0.036,-0.259 0.184,-0.526 0.443,-0.803 0.258,-0.277 0.387,-0.508 0.387,-0.692"
             style="fill:#960b5a;fill-opacity:1;fill-rule:nonzero;stroke:none"
             id="path120" /></g><g
           id="g122"
           transform="translate(515.4613,43.868)"><path
             d="m 0,0 c -1.92,-2.326 -3.646,-4.117 -5.178,-5.371 -1.532,-1.256 -3.128,-1.883 -4.789,-1.883 -1.404,0 -2.557,0.609 -3.461,1.828 -0.905,1.217 -1.357,2.62 -1.357,4.208 0,2.362 0.627,5.352 1.883,8.97 1.254,3.618 2.842,6.756 4.762,9.414 1.919,2.658 3.839,3.987 5.759,3.987 0.811,0 1.513,-0.296 2.104,-0.886 0.332,-0.332 0.646,-0.776 0.941,-1.329 0.296,-0.554 0.443,-1.052 0.443,-1.495 0,-0.628 -0.083,-1.357 -0.249,-2.187 C 0.692,14.425 0.517,14.01 0.332,14.01 c -0.369,0 -0.609,0.202 -0.72,0.609 -0.11,0.406 -0.185,0.922 -0.221,1.55 -0.111,0.96 -0.222,1.597 -0.332,1.911 -0.111,0.313 -0.277,0.47 -0.499,0.47 -1.735,0 -3.415,-1.209 -5.039,-3.627 -1.625,-2.418 -2.954,-5.224 -3.987,-8.416 -1.034,-3.194 -1.55,-5.658 -1.55,-7.393 0,-2.437 0.811,-3.654 2.436,-3.654 1.181,0 2.261,0.295 3.24,0.885 0.977,0.591 2.002,1.421 3.073,2.492 1.993,2.03 3.544,3.784 4.651,5.261 0.074,0.111 0.286,0.396 0.637,0.858 0.351,0.461 0.6,0.692 0.748,0.692 0.443,0 0.664,-0.166 0.664,-0.498 C 3.433,4.928 3.054,4.245 2.298,3.101 1.541,1.956 0.775,0.922 0,0"
             style="fill:#960b5a;fill-opacity:1;fill-rule:nonzero;stroke:none"
             id="path124" /></g><g
           id="g126"
           transform="translate(526.1476,35.5619)"><path
             d="m 0,0 c -0.517,0.037 -0.895,0.868 -1.135,2.492 -0.241,1.624 -0.49,4.707 -0.748,9.247 -0.148,2.99 -0.277,5.916 -0.387,8.777 -0.111,2.861 -0.185,5.067 -0.222,6.617 0,0.406 0.064,0.711 0.194,0.914 0.129,0.202 0.378,0.304 0.748,0.304 0.848,0 1.384,-0.351 1.605,-1.052 0.222,-0.701 0.333,-2.049 0.333,-4.042 L 0.332,16.723 c 0,-3.729 0.111,-6.719 0.332,-8.971 0,-0.11 0.167,-1.292 0.499,-3.543 C 1.421,2.658 1.551,1.624 1.551,1.107 1.551,0.739 1.393,0.453 1.08,0.249 0.766,0.047 0.406,-0.036 0,0 m -1.661,35.107 c -0.628,0 -1.265,0.258 -1.911,0.775 -0.646,0.517 -0.969,0.942 -0.969,1.274 0,0.406 0.194,0.794 0.582,1.163 0.387,0.368 0.784,0.553 1.19,0.553 0.554,-0.185 1.015,-0.479 1.385,-0.886 0.295,-0.295 0.627,-0.683 0.997,-1.162 0.368,-0.48 0.553,-0.776 0.553,-0.886 0,-0.554 -0.609,-0.831 -1.827,-0.831"
             style="fill:#960b5a;fill-opacity:1;fill-rule:nonzero;stroke:none"
             id="path128" /></g><g
           id="g130"
           transform="translate(543.0358,64.6888)"><path
             d="m 0,0 c -0.332,0 -0.6,0.092 -0.803,0.277 -0.203,0.184 -0.304,0.424 -0.304,0.719 0,0.185 0.609,0.849 1.827,1.994 C 2.122,4.245 3.156,5.296 3.821,6.147 4.375,6.921 4.818,7.586 5.15,8.14 5.556,8.767 5.842,9.173 6.008,9.358 6.174,9.542 6.386,9.635 6.645,9.635 7.013,9.635 7.401,9.431 7.808,9.026 8.214,8.619 8.417,8.231 8.417,7.863 8.417,7.383 7.826,6.506 6.645,5.233 5.463,3.959 4.181,2.769 2.797,1.661 1.412,0.553 0.479,0 0,0 m -1.938,-28.241 c -2.474,0 -4.301,0.683 -5.482,2.049 -1.182,1.365 -1.772,3.064 -1.772,5.095 0,1.771 0.323,3.967 0.969,6.589 0.645,2.62 1.559,4.965 2.741,7.033 0.074,0.146 0.378,0.692 0.914,1.633 0.534,0.941 1.135,1.661 1.799,2.159 0.665,0.499 1.366,0.748 2.105,0.748 0.332,0 0.636,-0.083 0.913,-0.249 C 0.526,-3.35 0.665,-3.563 0.665,-3.821 0.665,-3.896 0.563,-4.07 0.36,-4.347 0.157,-4.624 0,-4.837 -0.111,-4.984 c -1.255,-1.514 -2.27,-3.009 -3.045,-4.485 -1.034,-1.883 -1.837,-3.747 -2.409,-5.593 -0.573,-1.846 -0.858,-3.858 -0.858,-6.035 0,-2.918 1.772,-4.375 5.316,-4.375 1.661,0 3.202,0.479 4.623,1.44 1.421,0.959 2.556,2.131 3.406,3.516 0.849,1.384 1.274,2.648 1.274,3.793 0,1.292 -0.425,2.417 -1.274,3.378 -0.85,0.959 -2.013,1.974 -3.489,3.045 -0.96,0.701 -1.661,1.274 -2.104,1.717 -0.443,0.443 -0.664,0.811 -0.664,1.108 0,0.442 0.313,0.802 0.941,1.079 0.627,0.277 1.365,0.416 2.215,0.416 0.479,0 0.793,-0.029 0.941,-0.084 0.147,-0.055 0.222,-0.157 0.222,-0.304 0,-0.075 -0.065,-0.194 -0.194,-0.36 -0.13,-0.166 -0.194,-0.305 -0.194,-0.416 0,-0.11 0.369,-0.48 1.108,-1.107 1.476,-1.218 2.713,-2.456 3.71,-3.71 0.996,-1.255 1.495,-2.732 1.495,-4.43 0,-1.44 -0.535,-3.101 -1.606,-4.984 -1.071,-1.882 -2.585,-3.498 -4.541,-4.845 -1.957,-1.348 -4.19,-2.021 -6.7,-2.021"
             style="fill:#960b5a;fill-opacity:1;fill-rule:nonzero;stroke:none"
             id="path132" /></g><g
           id="g134"
           transform="translate(575.54,34.8423)"><path
             d="m 0,0 c -0.369,0 -0.683,0.083 -0.941,0.249 -0.259,0.166 -0.388,0.397 -0.388,0.692 0,1.514 0.111,3.857 0.333,7.033 0.221,3.395 0.332,6.22 0.332,8.472 0,2.177 -0.065,3.959 -0.194,5.344 -0.13,1.384 -0.435,2.076 -0.914,2.076 -1.255,0 -2.63,-1.56 -4.125,-4.679 C -7.392,16.067 -9.1,11.961 -11.019,6.866 L -11.85,4.651 c -0.148,-0.369 -0.397,-0.664 -0.748,-0.886 -0.351,-0.221 -0.711,-0.332 -1.079,-0.332 -0.443,0 -0.739,0.036 -0.886,0.111 -0.148,0.073 -0.241,0.295 -0.277,0.664 l -0.443,4.541 -0.83,7.974 c -0.259,3.174 -0.573,5.943 -0.942,8.306 -0.111,0.554 -0.166,0.978 -0.166,1.273 0,0.554 0.239,1.006 0.72,1.357 0.479,0.351 1.033,0.526 1.661,0.526 0.368,0 0.637,-0.886 0.803,-2.658 0.166,-1.772 0.341,-4.633 0.526,-8.583 l 0.221,-2.935 c 0.296,-3.729 0.462,-6.091 0.499,-7.088 0.111,0.222 0.212,0.471 0.304,0.748 0.092,0.277 0.212,0.581 0.36,0.914 1.994,5.168 3.867,9.477 5.621,12.93 1.753,3.451 3.442,5.177 5.067,5.177 1.143,0 1.928,-0.969 2.353,-2.907 C 1.338,21.845 1.606,19.361 1.717,16.335 1.828,12.975 1.883,8.065 1.883,1.606 1.883,1.163 1.698,0.785 1.329,0.471 0.96,0.157 0.517,0 0,0"
             style="fill:#960b5a;fill-opacity:1;fill-rule:nonzero;stroke:none"
             id="path136" /></g><g
           id="g138"
           transform="translate(627.8118,44.7539)"><path
             d="m 0,0 c -1.55,-2.104 -3.636,-4.144 -6.257,-6.119 -2.621,-1.974 -5.501,-2.962 -8.638,-2.962 -3.323,0 -6.036,0.951 -8.141,2.852 -2.103,1.9 -3.155,4.715 -3.155,8.444 0,2.547 0.443,5.427 1.328,8.638 0.886,3.212 1.92,5.999 3.101,8.362 1.218,2.399 2.631,4.392 4.236,5.98 1.606,1.587 3.221,2.382 4.846,2.382 1.586,0 2.814,-0.573 3.682,-1.718 0.867,-1.144 1.301,-2.566 1.301,-4.263 0,-0.628 -0.12,-1.265 -0.359,-1.91 -0.241,-0.647 -0.508,-1.191 -0.803,-1.634 -0.297,-0.443 -0.518,-0.664 -0.665,-0.664 -0.296,0 -0.443,0.166 -0.443,0.498 0,0.111 0.064,0.36 0.194,0.748 0.129,0.387 0.194,0.71 0.194,0.968 0,0.923 -0.111,1.791 -0.333,2.603 -0.185,0.701 -0.554,1.282 -1.107,1.745 -0.554,0.46 -1.163,0.692 -1.828,0.692 -2.657,0 -5.149,-2.567 -7.475,-7.697 -0.923,-2.068 -1.698,-4.394 -2.326,-6.978 -0.628,-2.584 -0.941,-5.076 -0.941,-7.475 0,-1.661 0.341,-3.175 1.025,-4.541 0.682,-1.366 1.66,-2.455 2.934,-3.267 1.274,-0.812 2.76,-1.218 4.458,-1.218 2.694,0 5.14,0.645 7.337,1.938 2.196,1.292 4.365,2.953 6.506,4.984 0.074,0.073 0.333,0.489 0.776,1.246 0.443,0.756 0.774,1.135 0.997,1.135 0.221,0 0.368,-0.056 0.442,-0.167 C 0.96,2.492 0.997,2.288 0.997,1.994 0.997,1.624 0.665,0.96 0,0"
             style="fill:#960b5a;fill-opacity:1;fill-rule:nonzero;stroke:none"
             id="path140" /></g><g
           id="g142"
           transform="translate(649.075,54.4447)"><path
             d="m 0,0 c 0.443,1.107 0.664,2.306 0.664,3.599 0,0.775 -0.23,1.448 -0.692,2.021 -0.462,0.572 -1.079,0.859 -1.854,0.859 -0.924,0 -2.105,-0.629 -3.544,-1.883 -1.662,-1.403 -3.416,-3.277 -5.261,-5.621 -1.847,-2.344 -3.378,-4.661 -4.596,-6.949 -1.218,-2.29 -1.827,-4.098 -1.827,-5.427 0,-1.107 0.516,-1.661 1.55,-1.661 1.994,0 3.913,0.738 5.759,2.215 1.845,1.476 3.497,3.24 4.956,5.288 C -3.387,-5.51 -1.772,-2.99 0,0 m 4.818,-15.56 c 0,-0.443 -0.185,-0.951 -0.554,-1.523 -0.37,-0.572 -0.739,-0.859 -1.108,-0.859 -0.628,0 -1.107,0.388 -1.439,1.164 -0.332,0.775 -0.499,1.679 -0.499,2.713 0,0.886 0.056,3.544 0.167,7.974 l 0.055,2.104 c 0,0.848 -0.222,1.458 -0.665,1.827 -1.661,-2.806 -3.211,-5.242 -4.651,-7.309 -1.44,-2.068 -3.267,-4.015 -5.482,-5.842 -2.215,-1.828 -4.541,-2.741 -6.977,-2.741 -1.182,0 -2.096,0.369 -2.741,1.107 -0.647,0.738 -0.969,1.698 -0.969,2.88 0,1.476 0.664,3.497 1.993,6.063 1.329,2.566 3.027,5.168 5.095,7.808 2.067,2.639 4.134,4.808 6.202,6.506 1.365,1.108 2.454,1.855 3.267,2.243 0.811,0.388 1.531,0.581 2.159,0.581 0.59,0 1.2,-0.184 1.828,-0.553 C 1.126,8.214 1.661,7.697 2.104,7.033 2.547,6.368 2.769,5.611 2.769,4.762 2.769,3.617 2.455,2.528 1.828,1.495 l 0.941,0.277 c 0.406,0 0.645,-0.498 0.72,-1.495 0.036,-0.591 0.083,-1.792 0.138,-3.6 0.056,-1.809 0.101,-3.304 0.139,-4.485 0.036,-1.218 0.073,-2.4 0.111,-3.544 0.036,-1.145 0.073,-2.049 0.11,-2.713 0.036,-0.259 0.184,-0.526 0.443,-0.803 0.258,-0.277 0.388,-0.508 0.388,-0.692"
             style="fill:#960b5a;fill-opacity:1;fill-rule:nonzero;stroke:none"
             id="path144" /></g><g
           id="g146"
           transform="translate(676.54,34.8423)"><path
             d="m 0,0 c -0.369,0 -0.683,0.083 -0.941,0.249 -0.259,0.166 -0.388,0.397 -0.388,0.692 0,1.514 0.111,3.857 0.333,7.033 0.221,3.395 0.332,6.22 0.332,8.472 0,2.177 -0.065,3.959 -0.194,5.344 -0.13,1.384 -0.435,2.076 -0.914,2.076 -1.255,0 -2.63,-1.56 -4.125,-4.679 C -7.392,16.067 -9.1,11.961 -11.019,6.866 L -11.85,4.651 c -0.148,-0.369 -0.397,-0.664 -0.748,-0.886 -0.351,-0.221 -0.711,-0.332 -1.079,-0.332 -0.443,0 -0.739,0.036 -0.886,0.111 -0.148,0.073 -0.241,0.295 -0.277,0.664 l -0.443,4.541 -0.831,7.974 c -0.258,3.174 -0.572,5.943 -0.941,8.306 -0.111,0.554 -0.166,0.978 -0.166,1.273 0,0.554 0.239,1.006 0.72,1.357 0.479,0.351 1.033,0.526 1.661,0.526 0.368,0 0.637,-0.886 0.803,-2.658 0.166,-1.772 0.341,-4.633 0.526,-8.583 l 0.221,-2.935 c 0.296,-3.729 0.462,-6.091 0.499,-7.088 0.111,0.222 0.212,0.471 0.304,0.748 0.092,0.277 0.212,0.581 0.36,0.914 1.994,5.168 3.867,9.477 5.621,12.93 1.753,3.451 3.442,5.177 5.067,5.177 1.143,0 1.928,-0.969 2.353,-2.907 C 1.337,21.845 1.606,19.361 1.717,16.335 1.828,12.975 1.883,8.065 1.883,1.606 1.883,1.163 1.698,0.785 1.329,0.471 0.96,0.157 0.517,0 0,0"
             style="fill:#960b5a;fill-opacity:1;fill-rule:nonzero;stroke:none"
             id="path148" /></g><g
           id="g150"
           transform="translate(688.3903,35.5619)"><path
             d="m 0,0 c -0.518,0.037 -0.896,0.868 -1.136,2.492 -0.24,1.624 -0.489,4.707 -0.747,9.247 -0.148,2.99 -0.277,5.916 -0.388,8.777 -0.111,2.861 -0.185,5.067 -0.221,6.617 0,0.406 0.064,0.711 0.194,0.914 0.129,0.202 0.378,0.304 0.747,0.304 0.849,0 1.385,-0.351 1.606,-1.052 0.222,-0.701 0.332,-2.049 0.332,-4.042 L 0.332,16.723 c 0,-3.729 0.111,-6.719 0.332,-8.971 0,-0.11 0.167,-1.292 0.499,-3.543 C 1.42,2.658 1.55,1.624 1.55,1.107 1.55,0.739 1.393,0.453 1.08,0.249 0.766,0.047 0.406,-0.036 0,0 m -1.661,35.107 c -0.628,0 -1.265,0.258 -1.911,0.775 -0.646,0.517 -0.969,0.942 -0.969,1.274 0,0.406 0.194,0.794 0.582,1.163 0.387,0.368 0.784,0.553 1.19,0.553 0.554,-0.185 1.015,-0.479 1.384,-0.886 0.296,-0.295 0.628,-0.683 0.997,-1.162 0.369,-0.48 0.554,-0.776 0.554,-0.886 0,-0.554 -0.609,-0.831 -1.827,-0.831"
             style="fill:#960b5a;fill-opacity:1;fill-rule:nonzero;stroke:none"
             id="path152" /></g><g
           id="g154"
           transform="translate(714.0829,34.8423)"><path
             d="m 0,0 c -0.37,0 -0.684,0.083 -0.942,0.249 -0.259,0.166 -0.387,0.397 -0.387,0.692 0,1.514 0.111,3.857 0.332,7.033 0.222,3.395 0.332,6.22 0.332,8.472 0,2.177 -0.064,3.959 -0.194,5.344 -0.129,1.384 -0.434,2.076 -0.913,2.076 -1.256,0 -2.63,-1.56 -4.126,-4.679 -1.495,-3.12 -3.203,-7.226 -5.122,-12.321 l -0.83,-2.215 c -0.148,-0.369 -0.397,-0.664 -0.748,-0.886 -0.351,-0.221 -0.711,-0.332 -1.08,-0.332 -0.443,0 -0.738,0.036 -0.886,0.111 -0.148,0.073 -0.24,0.295 -0.276,0.664 l -0.443,4.541 -0.831,7.974 c -0.259,3.174 -0.573,5.943 -0.941,8.306 -0.111,0.554 -0.166,0.978 -0.166,1.273 0,0.554 0.239,1.006 0.719,1.357 0.479,0.351 1.033,0.526 1.662,0.526 0.368,0 0.636,-0.886 0.803,-2.658 0.165,-1.772 0.34,-4.633 0.525,-8.583 l 0.222,-2.935 c 0.295,-3.729 0.461,-6.091 0.499,-7.088 0.11,0.222 0.211,0.471 0.304,0.748 0.091,0.277 0.212,0.581 0.36,0.914 1.993,5.168 3.866,9.477 5.62,12.93 1.753,3.451 3.442,5.177 5.067,5.177 1.144,0 1.928,-0.969 2.354,-2.907 C 1.338,21.845 1.606,19.361 1.717,16.335 1.827,12.975 1.882,8.065 1.882,1.606 1.882,1.163 1.697,0.785 1.329,0.471 0.959,0.157 0.516,0 0,0"
             style="fill:#960b5a;fill-opacity:1;fill-rule:nonzero;stroke:none"
             id="path156" /></g><g
           id="g158"
           transform="translate(741.3817,54.4447)"><path
             d="m 0,0 c 0.443,1.107 0.664,2.306 0.664,3.599 0,0.775 -0.23,1.448 -0.692,2.021 -0.462,0.572 -1.079,0.859 -1.855,0.859 -0.923,0 -2.104,-0.629 -3.543,-1.883 -1.662,-1.403 -3.416,-3.277 -5.261,-5.621 -1.847,-2.344 -3.378,-4.661 -4.596,-6.949 -1.218,-2.29 -1.827,-4.098 -1.827,-5.427 0,-1.107 0.516,-1.661 1.55,-1.661 1.993,0 3.912,0.738 5.759,2.215 1.845,1.476 3.497,3.24 4.956,5.288 C -3.387,-5.51 -1.772,-2.99 0,0 m 4.818,-15.56 c 0,-0.443 -0.185,-0.951 -0.554,-1.523 -0.37,-0.572 -0.739,-0.859 -1.108,-0.859 -0.628,0 -1.107,0.388 -1.439,1.164 -0.332,0.775 -0.499,1.679 -0.499,2.713 0,0.886 0.056,3.544 0.167,7.974 l 0.055,2.104 c 0,0.848 -0.222,1.458 -0.665,1.827 -1.661,-2.806 -3.211,-5.242 -4.651,-7.309 -1.44,-2.068 -3.267,-4.015 -5.482,-5.842 -2.215,-1.828 -4.541,-2.741 -6.978,-2.741 -1.181,0 -2.095,0.369 -2.74,1.107 -0.647,0.738 -0.969,1.698 -0.969,2.88 0,1.476 0.664,3.497 1.993,6.063 1.329,2.566 3.027,5.168 5.094,7.808 2.067,2.639 4.135,4.808 6.202,6.506 1.366,1.108 2.455,1.855 3.268,2.243 0.811,0.388 1.531,0.581 2.159,0.581 0.59,0 1.199,-0.184 1.827,-0.553 C 1.126,8.214 1.661,7.697 2.104,7.033 2.547,6.368 2.769,5.611 2.769,4.762 2.769,3.617 2.455,2.528 1.828,1.495 l 0.941,0.277 c 0.405,0 0.645,-0.498 0.719,-1.495 0.037,-0.591 0.084,-1.792 0.139,-3.6 0.055,-1.809 0.101,-3.304 0.139,-4.485 0.036,-1.218 0.073,-2.4 0.11,-3.544 0.036,-1.145 0.074,-2.049 0.111,-2.713 0.036,-0.259 0.184,-0.526 0.443,-0.803 0.258,-0.277 0.388,-0.508 0.388,-0.692"
             style="fill:#960b5a;fill-opacity:1;fill-rule:nonzero;stroke:none"
             id="path160" /></g></g></g></g></svg>
