<?xml version="1.0" encoding="utf-8"?>
<!-- Generator: Adobe Illustrator 27.5.0, SVG Export Plug-In . SVG Version: 6.00 Build 0)  -->
<svg version="1.1" id="Capa_1" xmlns="http://www.w3.org/2000/svg" xmlns:xlink="http://www.w3.org/1999/xlink" x="0px" y="0px"
	 viewBox="0 0 1080 1080" style="enable-background:new 0 0 1080 1080;" xml:space="preserve">
<style type="text/css">
	.st0{fill:#ffff;}
</style>
<path class="st0" d="M465.56,567.44l11.96-14.29c7.64,6.09,16.17,9.3,25.14,9.3c5.76,0,8.86-1.99,8.86-5.32v-0.22
	c0-3.21-2.55-4.98-13.07-7.42c-16.5-3.77-29.24-8.42-29.24-24.36v-0.22c0-14.4,11.41-24.81,30.02-24.81
	c13.18,0,23.48,3.54,31.9,10.3l-10.74,15.17c-7.09-4.98-14.84-7.64-21.71-7.64c-5.21,0-7.75,2.21-7.75,4.98v0.22
	c0,3.54,2.66,5.1,13.4,7.53c17.83,3.87,28.91,9.63,28.91,24.14v0.22c0,15.84-12.52,25.25-31.35,25.25
	C488.16,580.29,475.09,575.96,465.56,567.44"/>
<polygon class="st0" points="543.65,501.43 565.14,501.43 565.14,532.88 591.83,501.43 617.3,501.43 587.95,534.76 618.3,578.95 
	592.49,578.95 573,550.16 565.14,558.91 565.14,578.95 543.65,578.95 "/>
<polygon class="st0" points="643.55,549.94 614.09,501.43 638.57,501.43 654.52,529.67 670.58,501.43 694.61,501.43 665.15,549.6 
	665.15,578.96 643.55,578.96 "/>
<path class="st0" d="M701.26,501.43h29.9c27.69,0,43.75,15.95,43.75,38.32v0.22c0,22.37-16.28,38.99-44.19,38.99h-29.46V501.43z
	 M731.5,559.9c12.85,0,21.38-7.09,21.38-19.6v-0.22c0-12.41-8.53-19.61-21.38-19.61h-8.75v39.43H731.5z"/>
<path class="st0" d="M783.34,540.41v-0.22c0-22.26,17.94-40.31,41.87-40.31c23.92,0,41.64,17.83,41.64,40.09v0.22
	c0,22.26-17.94,40.31-41.87,40.31C801.06,580.51,783.34,562.68,783.34,540.41 M844.92,540.41v-0.22c0-11.19-8.09-20.93-19.94-20.93
	c-11.74,0-19.6,9.52-19.6,20.71v0.22c0,11.19,8.09,20.93,19.82,20.93C837.05,561.12,844.92,551.6,844.92,540.41"/>
<path class="st0" d="M875.38,540.41v-0.22c0-22.59,17.72-40.31,41.76-40.31c13.62,0,23.26,4.21,31.45,11.3l-12.63,15.17
	c-5.54-4.65-11.08-7.31-18.72-7.31c-11.19,0-19.82,9.41-19.82,21.26v0.22c0,12.51,8.75,21.49,21.04,21.49
	c5.21,0,9.19-1.11,12.41-3.21v-9.41h-15.28v-15.73h35.66v34.89c-8.19,6.76-19.6,11.96-33.67,11.96
	C893.44,580.51,875.38,563.89,875.38,540.41"/>
<path class="st0" d="M957.46,519.81v-0.11c0-10.52,8.53-19.38,19.27-19.38c10.85,0,19.27,8.75,19.27,19.27v0.11
	c0,10.52-8.53,19.38-19.27,19.38C965.88,539.08,957.46,530.33,957.46,519.81 M993.79,519.7v-0.11c0-9.41-7.31-17.17-17.06-17.17
	c-9.64,0-17.06,7.86-17.06,17.28v0.11c0,9.41,7.31,17.17,17.06,17.17C986.37,536.98,993.79,529.11,993.79,519.7 M968.09,509.07h9.86
	c5.32,0,8.86,2.32,8.86,6.98c0,3.21-1.55,5.32-4.1,6.43l4.76,6.98h-7.2l-3.99-5.87h-1.88v5.87h-6.31V509.07z M977.61,518.81
	c1.88,0,2.88-0.88,2.88-2.21c0-1.44-1-2.21-2.77-2.21h-3.32v4.43H977.61z"/>
<path class="st0" d="M416.72,465.97c-14.44-29.8-59.34-53.19-101.95-41.37c-42.61,11.82-50.05,38.92-53.86,54.51
	c-7.31,29.91-7.12,163.11,6.08,176.52c13.2,13.4,87.55-18.29,126.54-67.52C432.51,538.86,431.15,495.76,416.72,465.97
	 M379.91,537.26c-6.31,6.89-19.85-1.51-27.78,0.76c-7.93,2.26-23.8,8.84-26.69,13.51c-2.89,4.67-5.32,17.22-11.06,19.82
	c-5.74,2.6-14.56-2.96-14.78-8.85c-0.22-5.89,3.64-5.35,2.22-9.41c-1.42-4.05-11.48,1.11-13.17-10.93
	c-1.69-12.03,12.74-12.63,18.84-9.87c6.1,2.77,17.94,1.36,32.38-7.89c14.43-9.25,9.73-20.08,17.01-23.99
	c7.28-3.91,14.54,4.15,14.7,7.19c0.16,3.04-3.95,8.5-2.51,11.08c2.04,3.68,5.88,1.44,9.15,3.46
	C381.47,524.16,386.22,530.37,379.91,537.26"/>
<path class="st0" d="M193.73,529.61c-23.42-11.22-31.4-20.9-37.02-30.91c0,0-5.03-0.2-7.76-2.88c-2.73-2.68-0.84-6.12-0.84-6.12
	s-2.95-2.8-1.63-5.36c1.32-2.56,3.44-3,4.27-3.01c0,0,0.56-4.18,4.25-4.5c3.69-0.32,5.03,2.79,5.03,2.79s1.15-2.92,4.81-1.09
	c3.66,1.83,3.16,7.43,3.06,8.98c0,0,11.71,16.2,34.14,12.65c22.43-3.55,33.89-20.28,27.13-35.04c-8.77-19.16-29.95-44.21-75.8-43.22
	c-45.85,0.99-66.17,34.75-67.17,59.64c-1.04,25.89,11.14,46.61,33.13,62.06c16.1,11.31,39.36,17.63,48.55,32.92
	c0,0,5.03-0.15,7.94,2.34c2.91,2.49,1.26,6.05,1.26,6.05s3.14,2.59,2,5.23c-1.14,2.64-3.22,3.23-4.05,3.3c0,0-0.27,4.21-3.92,4.79
	c-3.66,0.57-5.21-2.44-5.21-2.44s-0.94,2.99-4.72,1.42c-3.78-1.57-3.67-7.19-3.68-8.75c-13.26-14.23-44.34-32.41-63.7-12.78
	c-11.04,11.19-0.75,34.21,11.04,47.72c18.68,21.4,37.45,32.4,72.93,35.41c35.48,3.01,69.03-16.67,68.41-62.07
	C245.56,551.35,217.16,540.83,193.73,529.61"/>
</svg>
