<?xml version="1.0" encoding="utf-8"?>
<!-- Generator: Adobe Illustrator 27.2.0, SVG Export Plug-In . SVG Version: 6.00 Build 0)  -->
<svg version="1.1" id="Capa_1" xmlns="http://www.w3.org/2000/svg" xmlns:xlink="http://www.w3.org/1999/xlink" x="0px" y="0px"
	 viewBox="0 0 1920 661.4" style="enable-background:new 0 0 1920 661.4;" xml:space="preserve">
<style type="text/css">
	.st0{fill:#2D2929;}
</style>
<g>
	<g>
		<g>
			<path class="st0" d="M-3477.2,677.1l25.1-30c16.1,12.8,34,19.5,52.8,19.5c12.1,0,18.6-4.2,18.6-11.2V655
				c0-6.7-5.4-10.5-27.5-15.6c-34.7-7.9-61.4-17.7-61.4-51.2v-0.5c0-30.3,24-52.1,63.1-52.1c27.7,0,49.3,7.4,67,21.6l-22.6,31.9
				c-14.9-10.5-31.2-16.1-45.6-16.1c-10.9,0-16.3,4.7-16.3,10.5v0.5c0,7.4,5.6,10.7,28.2,15.8c37.5,8.1,60.7,20.2,60.7,50.7v0.5
				c0,33.3-26.3,53.1-65.9,53.1C-3429.8,704.1-3457.2,695-3477.2,677.1z"/>
			<path class="st0" d="M-3313.2,538.4h45.1v66.1l56.1-66.1h53.5l-61.7,70l63.8,92.9h-54.2l-41-60.5l-16.5,18.4v42.1h-45.1V538.4z"
				/>
			<path class="st0" d="M-3103.3,640.3l-61.9-101.9h51.4l33.5,59.3l33.7-59.3h50.5l-61.9,101.2v61.7h-45.4V640.3z"/>
			<path class="st0" d="M-2982,538.4h62.8c58.2,0,91.9,33.5,91.9,80.5v0.5c0,47-34.2,81.9-92.9,81.9h-61.9V538.4z M-2918.5,661.3
				c27,0,44.9-14.9,44.9-41.2v-0.5c0-26.1-17.9-41.2-44.9-41.2h-18.4v82.8H-2918.5z"/>
			<path class="st0" d="M-2809.6,620.3v-0.5c0-46.8,37.7-84.7,88-84.7c50.3,0,87.5,37.5,87.5,84.2v0.5c0,46.8-37.7,84.7-88,84.7
				S-2809.6,667.1-2809.6,620.3z M-2680.2,620.3v-0.5c0-23.5-17-44-41.9-44c-24.7,0-41.2,20-41.2,43.5v0.5c0,23.5,17,44,41.7,44
				C-2696.7,663.8-2680.2,643.8-2680.2,620.3z"/>
			<path class="st0" d="M-2616.2,620.3v-0.5c0-47.5,37.2-84.7,87.7-84.7c28.6,0,48.9,8.8,66.1,23.7l-26.5,31.9
				c-11.6-9.8-23.3-15.4-39.3-15.4c-23.5,0-41.7,19.8-41.7,44.7v0.5c0,26.3,18.4,45.1,44.2,45.1c10.9,0,19.3-2.3,26.1-6.7v-19.8
				h-32.1v-33h74.9v73.3c-17.2,14.2-41.2,25.1-70.7,25.1C-2578.2,704.5-2616.2,669.6-2616.2,620.3z"/>
			<path class="st0" d="M-2443.7,577v-0.2c0-22.1,17.9-40.7,40.5-40.7c22.8,0,40.5,18.4,40.5,40.5v0.2c0,22.1-17.9,40.7-40.5,40.7
				C-2426,617.5-2443.7,599.1-2443.7,577z M-2367.4,576.8v-0.2c0-19.8-15.4-36.1-35.8-36.1c-20.2,0-35.8,16.5-35.8,36.3v0.2
				c0,19.8,15.4,36.1,35.8,36.1C-2383,613.1-2367.4,596.6-2367.4,576.8z M-2421.4,554.4h20.7c11.2,0,18.6,4.9,18.6,14.7
				c0,6.7-3.3,11.2-8.6,13.5l10,14.7h-15.1l-8.4-12.3h-4v12.3h-13.3V554.4z M-2401.4,574.9c4,0,6.1-1.9,6.1-4.7c0-3-2.1-4.7-5.8-4.7
				h-7v9.3H-2401.4z"/>
			<path class="st0" d="M-2578.4,49.9C-2608.7-12.7-2703-61.8-2792.6-37c-89.5,24.8-105.2,81.8-113.2,114.5
				c-15.4,62.9-15,342.7,12.8,370.9c27.7,28.2,184-38.4,265.9-141.9C-2545.2,203.1-2548,112.5-2578.4,49.9z M-2655.7,199.7
				c-13.3,14.5-41.7-3.2-58.4,1.6s-50,18.6-56.1,28.4c-6.1,9.8-11.2,36.2-23.2,41.6s-30.6-6.2-31.1-18.6
				c-0.5-12.4,7.6-11.3,4.7-19.8c-3-8.5-24.1,2.3-27.7-23c-3.6-25.3,26.8-26.5,39.6-20.7c12.8,5.8,37.7,2.9,68-16.6
				s20.4-42.2,35.7-50.4c15.3-8.2,30.5,8.7,30.9,15.1c0.3,6.4-8.3,17.9-5.3,23.3c4.3,7.7,12.3,3,19.2,7.3
				C-2652.4,172.2-2642.4,185.2-2655.7,199.7z"/>
			<path class="st0" d="M-3046.9,183.6c-49.2-23.6-66-43.9-77.8-64.9c0,0-10.6-0.4-16.3-6.1c-5.7-5.6-1.8-12.9-1.8-12.9
				s-6.2-5.9-3.4-11.3c2.8-5.4,7.2-6.3,9-6.3c0,0,1.2-8.8,8.9-9.5c7.8-0.7,10.6,5.9,10.6,5.9s2.4-6.1,10.1-2.3
				c7.7,3.8,6.6,15.6,6.4,18.9c0,0,24.6,34,71.7,26.6c47.1-7.5,71.2-42.6,57-73.6c-18.4-40.3-62.9-92.9-159.3-90.8
				c-96.3,2.1-139,73-141.1,125.3c-2.2,54.4,23.4,97.9,69.6,130.4c33.8,23.8,82.7,37,102,69.2c0,0,10.6-0.3,16.7,4.9
				c6.1,5.2,2.6,12.7,2.6,12.7s6.6,5.4,4.2,11c-2.4,5.6-6.8,6.8-8.5,6.9c0,0-0.6,8.9-8.2,10.1c-7.7,1.2-10.9-5.1-10.9-5.1
				s-2,6.3-9.9,3c-7.9-3.3-7.7-15.1-7.7-18.4c-27.9-29.9-93.2-68.1-133.8-26.8c-23.2,23.5-1.6,71.9,23.2,100.3
				c39.2,45,78.7,68.1,153.2,74.4c74.6,6.3,145-35,143.7-130.4C-2938,229.3-2997.6,207.2-3046.9,183.6z"/>
		</g>
	</g>
</g>
<g>
	<g>
		<g>
			<g>
				<g>
					<path class="st0" d="M-1233.7,379.9l21.5-25.7c13.7,11,29.1,16.7,45.2,16.7c10.4,0,15.9-3.6,15.9-9.6v-0.4
						c0-5.8-4.6-9-23.5-13.3c-29.7-6.8-52.6-15.1-52.6-43.8v-0.4c0-25.9,20.5-44.6,54-44.6c23.7,0,42.2,6.4,57.3,18.5l-19.3,27.3
						c-12.7-9-26.7-13.7-39-13.7c-9.4,0-13.9,4-13.9,9v0.4c0,6.4,4.8,9.2,24.1,13.5c32.1,7,52,17.3,52,43.4v0.4
						c0,28.5-22.5,45.4-56.3,45.4C-1193.1,403-1216.5,395.2-1233.7,379.9z"/>
					<path class="st0" d="M-1093.3,261.2h38.6v56.5l48-56.5h45.8l-52.8,59.9l54.6,79.4h-46.4l-35-51.8l-14.1,15.7v36h-38.6V261.2z"
						/>
					<path class="st0" d="M-913.7,348.4l-53-87.2h44L-894,312l28.9-50.8h43.2l-53,86.6v52.8h-38.8V348.4z"/>
					<path class="st0" d="M-809.9,261.2h53.8c49.8,0,78.7,28.7,78.7,68.9v0.4c0,40.2-29.3,70.1-79.4,70.1h-53V261.2z M-755.6,366.3
						c23.1,0,38.4-12.7,38.4-35.2v-0.4c0-22.3-15.3-35.2-38.4-35.2h-15.7v70.9H-755.6z"/>
					<path class="st0" d="M-662.4,331.3v-0.4c0-40,32.3-72.5,75.3-72.5c43,0,74.9,32.1,74.9,72.1v0.4c0,40-32.3,72.5-75.3,72.5
						S-662.4,371.3-662.4,331.3z M-551.7,331.3v-0.4c0-20.1-14.5-37.6-35.8-37.6c-21.1,0-35.2,17.1-35.2,37.2v0.4
						c0,20.1,14.5,37.6,35.6,37.6C-565.8,368.5-551.7,351.4-551.7,331.3z"/>
					<path class="st0" d="M-496.9,331.3v-0.4c0-40.6,31.9-72.5,75.1-72.5c24.5,0,41.8,7.6,56.5,20.3L-388,306
						c-10-8.4-19.9-13.1-33.6-13.1c-20.1,0-35.6,16.9-35.6,38.2v0.4c0,22.5,15.7,38.6,37.8,38.6c9.4,0,16.5-2,22.3-5.8v-16.9h-27.5
						v-28.3h64.1v62.7c-14.7,12.1-35.2,21.5-60.5,21.5C-464.5,403.4-496.9,373.5-496.9,331.3z"/>
					<path class="st0" d="M-349.4,294.2V294c0-18.9,15.3-34.8,34.6-34.8c19.5,0,34.6,15.7,34.6,34.6v0.2c0,18.9-15.3,34.8-34.6,34.8
						C-334.2,328.9-349.4,313.2-349.4,294.2z M-284.1,294v-0.2c0-16.9-13.1-30.9-30.7-30.9c-17.3,0-30.7,14.1-30.7,31.1v0.2
						c0,16.9,13.1,30.9,30.7,30.9C-297.4,325.1-284.1,311-284.1,294z M-330.3,274.9h17.7c9.6,0,15.9,4.2,15.9,12.5
						c0,5.8-2.8,9.6-7.4,11.5l8.6,12.5h-12.9l-7.2-10.6h-3.4v10.6h-11.4V274.9z M-313.1,292.5c3.4,0,5.2-1.6,5.2-4c0-2.6-1.8-4-5-4
						h-6v8H-313.1z"/>
				</g>
				<g>
					<path class="st0" d="M-1321.5,197.4c-26-53.6-106.7-95.6-183.3-74.4c-76.6,21.3-90,70-96.8,98
						c-13.1,53.8-12.8,293.2,10.9,317.3c23.7,24.1,157.4-32.9,227.5-121.4C-1293.1,328.5-1295.5,251-1321.5,197.4z M-1387.7,325.6
						c-11.3,12.4-35.7-2.7-49.9,1.4c-14.3,4.1-42.8,15.9-48,24.3c-5.2,8.4-9.6,31-19.9,35.6c-10.3,4.7-26.2-5.3-26.6-15.9
						c-0.4-10.6,6.5-9.6,4-16.9c-2.6-7.3-20.6,2-23.7-19.6s22.9-22.7,33.9-17.7c11,5,32.3,2.5,58.2-14.2s17.5-36.1,30.6-43.1
						c13.1-7,26.1,7.5,26.4,12.9c0.3,5.5-7.1,15.3-4.5,19.9c3.7,6.6,10.6,2.6,16.5,6.2C-1384.8,302.1-1376.3,313.2-1387.7,325.6z"/>
					<path class="st0" d="M-1722.3,311.9c-42.1-20.2-56.5-37.6-66.5-55.6c0,0-9-0.4-13.9-5.2c-4.9-4.8-1.5-11-1.5-11s-5.3-5-2.9-9.6
						c2.4-4.6,6.2-5.4,7.7-5.4c0,0,1-7.5,7.6-8.1c6.6-0.6,9,5,9,5s2.1-5.2,8.6-2c6.6,3.3,5.7,13.4,5.5,16.1c0,0,21.1,29.1,61.4,22.7
						c40.3-6.4,60.9-36.5,48.8-63c-15.8-34.4-53.8-79.5-136.3-77.7c-82.4,1.8-119,62.5-120.8,107.2c-1.9,46.5,20,83.8,59.6,111.6
						c28.9,20.3,70.7,31.7,87.3,59.2c0,0,9-0.3,14.3,4.2c5.2,4.5,2.3,10.9,2.3,10.9s5.6,4.7,3.6,9.4c-2.1,4.8-5.8,5.8-7.3,5.9
						c0,0-0.5,7.6-7.1,8.6c-6.6,1-9.4-4.4-9.4-4.4s-1.7,5.4-8.5,2.6c-6.8-2.8-6.6-12.9-6.6-15.7c-23.8-25.6-79.7-58.3-114.5-23
						c-19.8,20.1-1.3,61.5,19.9,85.8c33.6,38.5,67.3,58.2,131.1,63.7c63.8,5.4,124.1-30,123-111.6
						C-1629.2,350.9-1680.2,332-1722.3,311.9z"/>
				</g>
			</g>
		</g>
	</g>
</g>
<g>
	<g>
		<g>
			<path class="st0" d="M220.5,404.5l33.3-39.8c21.3,17,45.1,25.9,70.1,25.9c16.1,0,24.7-5.6,24.7-14.8v-0.6c0-9-7.1-13.9-36.4-20.7
				c-46-10.5-81.5-23.5-81.5-67.9v-0.6c0-40.1,31.8-69.2,83.7-69.2c36.7,0,65.5,9.9,88.9,28.7l-30,42.3
				c-19.8-13.9-41.4-21.3-60.5-21.3c-14.5,0-21.6,6.2-21.6,13.9v0.6c0,9.9,7.4,14.2,37.4,21c49.7,10.8,80.6,26.9,80.6,67.3v0.6
				c0,44.2-34.9,70.4-87.4,70.4C283.5,440.3,247,428.3,220.5,404.5z"/>
			<path class="st0" d="M438.2,220.5h59.9v87.7l74.4-87.7h71l-81.8,92.9l84.6,123.2h-71.9L520,356.3l-21.9,24.4v55.9h-59.9V220.5z"
				/>
			<path class="st0" d="M716.7,355.7l-82.1-135.2h68.2l44.5,78.7l44.8-78.7h67l-82.1,134.3v81.8h-60.2V355.7z"/>
			<path class="st0" d="M877.6,220.5h83.4c77.2,0,122,44.5,122,106.8v0.6c0,62.4-45.4,108.7-123.2,108.7h-82.1V220.5z M961.9,383.5
				c35.8,0,59.6-19.8,59.6-54.7v-0.6c0-34.6-23.8-54.7-59.6-54.7h-24.4v109.9H961.9z"/>
			<path class="st0" d="M1106.4,329.2v-0.6c0-62.1,50-112.4,116.7-112.4s116.1,49.7,116.1,111.8v0.6c0,62.1-50,112.4-116.7,112.4
				S1106.4,391.2,1106.4,329.2z M1278.1,329.2v-0.6c0-31.2-22.5-58.4-55.6-58.4c-32.7,0-54.6,26.6-54.6,57.7v0.6
				c0,31.2,22.5,58.4,55.3,58.4C1256.1,386.9,1278.1,360.3,1278.1,329.2z"/>
			<path class="st0" d="M1363,329.2v-0.6c0-63,49.4-112.4,116.4-112.4c38,0,64.8,11.7,87.7,31.5l-35.2,42.3
				c-15.4-13-30.9-20.4-52.2-20.4c-31.2,0-55.3,26.2-55.3,59.3v0.6c0,34.9,24.4,59.9,58.7,59.9c14.5,0,25.6-3.1,34.6-9v-26.2h-42.6
				v-43.8h99.4v97.3c-22.8,18.8-54.6,33.3-93.9,33.3C1413.3,440.9,1363,394.6,1363,329.2z"/>
			<path class="st0" d="M1591.8,271.7v-0.3c0-29.3,23.8-54,53.7-54c30.3,0,53.7,24.4,53.7,53.7v0.3c0,29.3-23.8,54-53.7,54
				C1615.3,325.4,1591.8,301.1,1591.8,271.7z M1693.1,271.4v-0.3c0-26.2-20.4-47.9-47.5-47.9c-26.9,0-47.6,21.9-47.6,48.2v0.3
				c0,26.2,20.4,47.9,47.6,47.9C1672.4,319.6,1693.1,297.7,1693.1,271.4z M1621.4,241.8h27.5c14.8,0,24.7,6.5,24.7,19.5
				c0,9-4.3,14.8-11.4,17.9l13.3,19.5h-20.1l-11.1-16.4h-5.2v16.4h-17.6V241.8z M1648,268.9c5.2,0,8-2.5,8-6.2c0-4-2.8-6.2-7.7-6.2
				h-9.3v12.4H1648z"/>
		</g>
	</g>
</g>
</svg>
