<?xml version="1.0" encoding="utf-8"?>
<!-- Generator: Adobe Illustrator 27.5.0, SVG Export Plug-In . SVG Version: 6.00 Build 0)  -->
<svg version="1.1" id="Capa_1" xmlns="http://www.w3.org/2000/svg" xmlns:xlink="http://www.w3.org/1999/xlink" x="0px" y="0px"
	 viewBox="0 0 1524.9 984.3" style="enable-background:new 0 0 1524.9 984.3;" xml:space="preserve">
<style type="text/css">
	.st0{fill:#FCCCED;}
</style>
<path class="st0" d="M0,0v984.3c33.3,0.2,66.6-8.8,96.1-26.8l0,0c58.5-35.7,132-35.7,190.5,0l0,0c58.5,35.7,132,35.7,190.5,0h0
	c58.5-35.7,132-35.7,190.5,0h0c58.5,35.7,132,35.7,190.5,0h0c58.5-35.7,132-35.7,190.5,0h0c58.5,35.7,132,35.7,190.5,0
	s132-35.7,190.5,0c29.2,17.9,62.2,26.8,95.2,26.8V0H0z"/>
</svg>
