<?xml version="1.0" encoding="utf-8"?>
<!-- Generator: Adobe Illustrator 27.5.0, SVG Export Plug-In . SVG Version: 6.00 Build 0)  -->
<svg version="1.1" id="Capa_1" xmlns="http://www.w3.org/2000/svg" xmlns:xlink="http://www.w3.org/1999/xlink" x="0px" y="0px"
	 viewBox="0 0 1500.4 212.5" style="enable-background:new 0 0 1500.4 212.5;" xml:space="preserve">
<style type="text/css">
	.st0{fill:#FFFFFF;}
</style>
<path class="st0" d="M750.2,212.5h750.2V0c-16.2,0-32.5,4.4-46.9,13.2l0,0c-28.8,17.6-65,17.6-93.8,0l0,0c-28.8-17.6-65-17.6-93.8,0
	l0,0c-28.8,17.6-65,17.6-93.8,0l0,0c-28.8-17.6-65-17.6-93.8,0l0,0c-28.8,17.6-65,17.6-93.8,0l0,0c-28.8-17.6-65-17.6-93.8,0
	c-28.8,17.6-65,17.6-93.8,0l0,0C782.6,4.4,766.4,0,750.2,0v0c-16.2,0-32.5,4.4-46.9,13.2l0,0c-28.8,17.6-65,17.6-93.8,0l0,0
	c-28.8-17.6-65-17.6-93.8,0l0,0c-28.8,17.6-65,17.6-93.8,0l0,0c-28.8-17.6-65-17.6-93.8,0l0,0c-28.8,17.6-65,17.6-93.8,0l0,0
	c-28.8-17.6-65-17.6-93.8,0c-28.8,17.6-65,17.6-93.8,0l0,0C32.4,4.4,16.2,0,0,0v212.5H750.2z"/>
</svg>
